<svg width="372" height="63" viewBox="0 0 372 63" fill="none" xmlns="http://www.w3.org/2000/svg">
<rect x="1" y="1.29395" width="170" height="60" rx="16" stroke="#203A59" stroke-width="2"/>
<g clip-path="url(#clip0_0_3968)">
<path d="M44.1891 32.4585C44.2203 29.9909 45.4895 27.7116 47.552 26.4192C46.2449 24.5165 44.1342 23.3534 41.8565 23.2807C39.4602 23.0243 37.137 24.7423 35.9159 24.7423C34.6712 24.7423 32.7911 23.3062 30.7665 23.3486C28.1027 23.4364 25.6795 24.9427 24.3835 27.3164C21.6236 32.1869 23.6823 39.3448 26.326 43.2817C27.6487 45.2094 29.1946 47.3628 31.2173 47.2865C33.1967 47.2028 33.9359 45.9999 36.3252 45.9999C38.6923 45.9999 39.3859 47.2865 41.4497 47.2379C43.5736 47.2028 44.9118 45.3016 46.1881 43.3555C47.1385 41.9819 47.8698 40.4638 48.3549 38.8573C45.8323 37.7698 44.192 35.2503 44.1891 32.4585Z" fill="#203A59"/>
<path d="M40.291 20.6915C41.4491 19.2745 42.0196 17.4531 41.8815 15.6143C40.1122 15.8037 38.4779 16.6656 37.3042 18.0282C36.1452 19.3727 35.558 21.1316 35.6721 22.9175C37.4651 22.9363 39.1675 22.1159 40.291 20.6915Z" fill="#203A59"/>
</g>
<path d="M64.3942 46.2939H61.4283L65.9474 33.203H69.5142L74.027 46.2939H71.0611L67.782 36.1945H67.6797L64.3942 46.2939ZM64.2088 41.1483H71.2145V43.3089H64.2088V41.1483ZM75.5515 49.9758V36.4758H78.2362V38.1249H78.3576C78.4769 37.8607 78.6495 37.5922 78.8754 37.3195C79.1055 37.0425 79.4038 36.8124 79.7702 36.6292C80.141 36.4417 80.6012 36.3479 81.1509 36.3479C81.8668 36.3479 82.5273 36.5354 83.1325 36.9104C83.7376 37.2812 84.2212 37.8415 84.5835 38.5915C84.9457 39.3373 85.1268 40.2726 85.1268 41.3976C85.1268 42.4928 84.9499 43.4175 84.5962 44.1718C84.2468 44.9218 83.7695 45.4907 83.1644 45.8785C82.5636 46.262 81.8903 46.4537 81.1445 46.4537C80.6161 46.4537 80.1665 46.3664 79.7958 46.1917C79.4293 46.017 79.1289 45.7975 78.8945 45.5333C78.6602 45.2648 78.4812 44.9942 78.3576 44.7215H78.2745V49.9758H75.5515ZM78.217 41.3849C78.217 41.9687 78.2979 42.4779 78.4599 42.9126C78.6218 43.3472 78.8562 43.686 79.163 43.9289C79.4698 44.1675 79.8427 44.2868 80.2816 44.2868C80.7248 44.2868 81.0998 44.1654 81.4066 43.9225C81.7134 43.6753 81.9457 43.3344 82.1033 42.8998C82.2653 42.4608 82.3462 41.9559 82.3462 41.3849C82.3462 40.8181 82.2674 40.3195 82.1097 39.8891C81.9521 39.4587 81.7198 39.1221 81.413 38.8792C81.1062 38.6363 80.729 38.5148 80.2816 38.5148C79.8384 38.5148 79.4634 38.632 79.1566 38.8664C78.854 39.1008 78.6218 39.4331 78.4599 39.8635C78.2979 40.2939 78.217 40.801 78.217 41.3849ZM86.9421 49.9758V36.4758H89.6268V38.1249H89.7482C89.8675 37.8607 90.0401 37.5922 90.266 37.3195C90.4961 37.0425 90.7944 36.8124 91.1609 36.6292C91.5316 36.4417 91.9918 36.3479 92.5415 36.3479C93.2575 36.3479 93.918 36.5354 94.5231 36.9104C95.1282 37.2812 95.6119 37.8415 95.9741 38.5915C96.3363 39.3373 96.5174 40.2726 96.5174 41.3976C96.5174 42.4928 96.3406 43.4175 95.9869 44.1718C95.6374 44.9218 95.1602 45.4907 94.555 45.8785C93.9542 46.262 93.2809 46.4537 92.5352 46.4537C92.0067 46.4537 91.5572 46.3664 91.1864 46.1917C90.82 46.017 90.5195 45.7975 90.2852 45.5333C90.0508 45.2648 89.8718 44.9942 89.7482 44.7215H89.6651V49.9758H86.9421ZM89.6076 41.3849C89.6076 41.9687 89.6886 42.4779 89.8505 42.9126C90.0124 43.3472 90.2468 43.686 90.5536 43.9289C90.8604 44.1675 91.2333 44.2868 91.6722 44.2868C92.1154 44.2868 92.4904 44.1654 92.7972 43.9225C93.104 43.6753 93.3363 43.3344 93.494 42.8998C93.6559 42.4608 93.7369 41.9559 93.7369 41.3849C93.7369 40.8181 93.658 40.3195 93.5004 39.8891C93.3427 39.4587 93.1104 39.1221 92.8036 38.8792C92.4968 38.6363 92.1197 38.5148 91.6722 38.5148C91.229 38.5148 90.854 38.632 90.5472 38.8664C90.2447 39.1008 90.0124 39.4331 89.8505 39.8635C89.6886 40.2939 89.6076 40.801 89.6076 41.3849ZM109.651 36.968C109.6 36.4523 109.381 36.0518 108.993 35.7662C108.605 35.4807 108.079 35.338 107.414 35.338C106.963 35.338 106.581 35.4019 106.27 35.5297C105.959 35.6533 105.72 35.8259 105.554 36.0475C105.392 36.2691 105.311 36.5205 105.311 36.8018C105.303 37.0361 105.352 37.2407 105.458 37.4154C105.569 37.5901 105.72 37.7414 105.912 37.8692C106.104 37.9928 106.325 38.1015 106.577 38.1952C106.828 38.2847 107.097 38.3614 107.382 38.4253L108.558 38.7066C109.129 38.8344 109.654 39.0049 110.131 39.218C110.608 39.431 111.021 39.6931 111.371 40.0042C111.72 40.3153 111.991 40.6817 112.183 41.1036C112.379 41.5255 112.479 42.0091 112.483 42.5546C112.479 43.3557 112.274 44.0503 111.869 44.6384C111.469 45.2222 110.889 45.676 110.131 45.9999C109.377 46.3195 108.467 46.4793 107.401 46.4793C106.345 46.4793 105.424 46.3174 104.64 45.9935C103.86 45.6697 103.251 45.1903 102.812 44.5553C102.377 43.9161 102.149 43.1256 102.128 42.1839H104.806C104.836 42.6228 104.962 42.9893 105.183 43.2833C105.409 43.5731 105.71 43.7925 106.085 43.9417C106.464 44.0866 106.892 44.159 107.369 44.159C107.838 44.159 108.245 44.0908 108.59 43.9545C108.94 43.8181 109.21 43.6285 109.402 43.3856C109.594 43.1427 109.69 42.8635 109.69 42.5482C109.69 42.2542 109.602 42.007 109.428 41.8067C109.257 41.6064 109.006 41.436 108.673 41.2954C108.345 41.1547 107.943 41.0269 107.465 40.9118L106.04 40.5539C104.936 40.2854 104.065 39.8657 103.426 39.2947C102.786 38.7236 102.469 37.9545 102.473 36.9871C102.469 36.1945 102.68 35.502 103.106 34.9097C103.536 34.3174 104.127 33.855 104.877 33.5226C105.627 33.1903 106.479 33.0241 107.433 33.0241C108.405 33.0241 109.253 33.1903 109.977 33.5226C110.706 33.855 111.273 34.3174 111.678 34.9097C112.083 35.502 112.291 36.1881 112.304 36.968H109.651ZM119.516 36.4758V38.5212H113.603V36.4758H119.516ZM114.946 34.1235H117.669V43.2769C117.669 43.5283 117.707 43.7243 117.784 43.865C117.86 44.0013 117.967 44.0972 118.103 44.1526C118.244 44.208 118.406 44.2357 118.589 44.2357C118.717 44.2357 118.845 44.2251 118.973 44.2037C119.1 44.1782 119.199 44.159 119.267 44.1462L119.695 46.1725C119.559 46.2151 119.367 46.2641 119.12 46.3195C118.873 46.3792 118.572 46.4154 118.218 46.4282C117.562 46.4537 116.987 46.3664 116.493 46.1661C116.002 45.9658 115.621 45.6547 115.348 45.2329C115.076 44.811 114.941 44.2783 114.946 43.6349V34.1235ZM125.62 46.4857C124.627 46.4857 123.769 46.2748 123.044 45.8529C122.324 45.4268 121.768 44.8344 121.376 44.0759C120.984 43.3131 120.788 42.4289 120.788 41.4232C120.788 40.409 120.984 39.5226 121.376 38.7641C121.768 38.0013 122.324 37.409 123.044 36.9871C123.769 36.561 124.627 36.3479 125.62 36.3479C126.613 36.3479 127.47 36.561 128.19 36.9871C128.914 37.409 129.473 38.0013 129.865 38.7641C130.257 39.5226 130.453 40.409 130.453 41.4232C130.453 42.4289 130.257 43.3131 129.865 44.0759C129.473 44.8344 128.914 45.4268 128.19 45.8529C127.47 46.2748 126.613 46.4857 125.62 46.4857ZM125.633 44.3763C126.085 44.3763 126.462 44.2485 126.765 43.9928C127.067 43.7329 127.295 43.3792 127.449 42.9317C127.606 42.4843 127.685 41.9751 127.685 41.404C127.685 40.833 127.606 40.3238 127.449 39.8763C127.295 39.4289 127.067 39.0752 126.765 38.8153C126.462 38.5553 126.085 38.4253 125.633 38.4253C125.177 38.4253 124.794 38.5553 124.483 38.8153C124.176 39.0752 123.944 39.4289 123.786 39.8763C123.632 40.3238 123.556 40.833 123.556 41.404C123.556 41.9751 123.632 42.4843 123.786 42.9317C123.944 43.3792 124.176 43.7329 124.483 43.9928C124.794 44.2485 125.177 44.3763 125.633 44.3763ZM132.223 46.2939V36.4758H134.863V38.1888H134.966C135.145 37.5795 135.445 37.1192 135.867 36.8082C136.289 36.4928 136.775 36.3351 137.324 36.3351C137.461 36.3351 137.608 36.3437 137.765 36.3607C137.923 36.3778 138.061 36.4012 138.181 36.431V38.8472C138.053 38.8089 137.876 38.7748 137.65 38.7449C137.424 38.7151 137.218 38.7002 137.03 38.7002C136.63 38.7002 136.272 38.7876 135.956 38.9623C135.645 39.1327 135.398 39.3714 135.215 39.6782C135.036 39.985 134.946 40.3387 134.946 40.7393V46.2939H132.223ZM143.606 46.4857C142.596 46.4857 141.727 46.2812 140.998 45.8721C140.274 45.4587 139.715 44.8749 139.323 44.1206C138.931 43.3621 138.735 42.4651 138.735 41.4296C138.735 40.4197 138.931 39.5333 139.323 38.7705C139.715 38.0077 140.267 37.4133 140.979 36.9871C141.695 36.561 142.534 36.3479 143.497 36.3479C144.145 36.3479 144.748 36.4523 145.306 36.6611C145.869 36.8657 146.359 37.1746 146.776 37.588C147.198 38.0013 147.526 38.5212 147.761 39.1476C147.995 39.7698 148.112 40.4985 148.112 41.3337V42.0816H139.822V40.3941H145.549C145.549 40.002 145.464 39.6547 145.294 39.3522C145.123 39.0496 144.887 38.8131 144.584 38.6427C144.286 38.468 143.938 38.3806 143.542 38.3806C143.129 38.3806 142.762 38.4765 142.443 38.6682C142.127 38.8557 141.88 39.1093 141.701 39.4289C141.522 39.7442 141.431 40.0958 141.426 40.4836V42.088C141.426 42.5738 141.516 42.9935 141.695 43.3472C141.878 43.7009 142.136 43.9736 142.468 44.1654C142.801 44.3572 143.195 44.453 143.651 44.453C143.953 44.453 144.23 44.4104 144.482 44.3252C144.733 44.24 144.948 44.1121 145.127 43.9417C145.306 43.7712 145.443 43.5624 145.536 43.3153L148.055 43.4814C147.927 44.0866 147.665 44.615 147.269 45.0667C146.877 45.5141 146.369 45.8635 145.747 46.115C145.129 46.3621 144.416 46.4857 143.606 46.4857Z" fill="#203A59"/>
<path d="M68.125 24.2939H65.8807V17.0212H68.2244C68.9299 17.0212 69.5336 17.1668 70.0355 17.458C70.5374 17.7468 70.9221 18.1623 71.1896 18.7045C71.4571 19.2442 71.5909 19.8905 71.5909 20.6434C71.5909 21.401 71.456 22.0532 71.1861 22.6001C70.9162 23.1446 70.5232 23.5636 70.0071 23.8572C69.491 24.1483 68.8636 24.2939 68.125 24.2939ZM66.7614 23.5127H68.0682C68.6695 23.5127 69.1679 23.3967 69.5632 23.1647C69.9586 22.9327 70.2533 22.6024 70.4474 22.1739C70.6416 21.7454 70.7386 21.2352 70.7386 20.6434C70.7386 20.0563 70.6428 19.5508 70.451 19.127C70.2592 18.7009 69.9728 18.3742 69.5916 18.1469C69.2105 17.9173 68.7358 17.8025 68.1676 17.8025H66.7614V23.5127ZM75.1705 24.4076C74.678 24.4076 74.246 24.2904 73.8743 24.056C73.505 23.8216 73.2161 23.4938 73.0078 23.0724C72.8018 22.651 72.6989 22.1585 72.6989 21.5951C72.6989 21.0269 72.8018 20.5309 73.0078 20.1072C73.2161 19.6834 73.505 19.3543 73.8743 19.1199C74.246 18.8856 74.678 18.7684 75.1705 18.7684C75.6629 18.7684 76.0938 18.8856 76.4631 19.1199C76.8348 19.3543 77.1236 19.6834 77.3295 20.1072C77.5379 20.5309 77.642 21.0269 77.642 21.5951C77.642 22.1585 77.5379 22.651 77.3295 23.0724C77.1236 23.4938 76.8348 23.8216 76.4631 24.056C76.0938 24.2904 75.6629 24.4076 75.1705 24.4076ZM75.1705 23.6547C75.5445 23.6547 75.8523 23.5589 76.0938 23.3671C76.3352 23.1753 76.514 22.9232 76.63 22.6107C76.746 22.2982 76.804 21.9597 76.804 21.5951C76.804 21.2305 76.746 20.8908 76.63 20.5759C76.514 20.261 76.3352 20.0065 76.0938 19.8124C75.8523 19.6183 75.5445 19.5212 75.1705 19.5212C74.7964 19.5212 74.4886 19.6183 74.2472 19.8124C74.0057 20.0065 73.8269 20.261 73.7109 20.5759C73.5949 20.8908 73.5369 21.2305 73.5369 21.5951C73.5369 21.9597 73.5949 22.2982 73.7109 22.6107C73.8269 22.9232 74.0057 23.1753 74.2472 23.3671C74.4886 23.5589 74.7964 23.6547 75.1705 23.6547ZM79.9716 24.2939L78.3097 18.8394H79.1903L80.3693 23.0155H80.4261L81.5909 18.8394H82.4858L83.6364 23.0013H83.6932L84.8722 18.8394H85.7528L84.0909 24.2939H83.267L82.0739 20.1036H81.9886L80.7955 24.2939H79.9716ZM87.6989 21.0127V24.2939H86.8608V18.8394H87.6705V19.6917H87.7415C87.8693 19.4147 88.0634 19.1921 88.3239 19.0241C88.5843 18.8536 88.9205 18.7684 89.3324 18.7684C89.7017 18.7684 90.0249 18.8441 90.3018 18.9956C90.5788 19.1448 90.7943 19.3721 90.9482 19.6775C91.102 19.9805 91.179 20.364 91.179 20.828V24.2939H90.3409V20.8849C90.3409 20.4564 90.2296 20.1225 90.0071 19.8834C89.7846 19.642 89.4792 19.5212 89.0909 19.5212C88.8234 19.5212 88.5843 19.5792 88.3736 19.6952C88.1652 19.8112 88.0007 19.9805 87.88 20.203C87.7592 20.4256 87.6989 20.6955 87.6989 21.0127ZM93.5485 17.0212V24.2939H92.7104V17.0212H93.5485ZM97.2994 24.4076C96.8069 24.4076 96.3749 24.2904 96.0032 24.056C95.6339 23.8216 95.3451 23.4938 95.1367 23.0724C94.9308 22.651 94.8278 22.1585 94.8278 21.5951C94.8278 21.0269 94.9308 20.5309 95.1367 20.1072C95.3451 19.6834 95.6339 19.3543 96.0032 19.1199C96.3749 18.8856 96.8069 18.7684 97.2994 18.7684C97.7918 18.7684 98.2227 18.8856 98.592 19.1199C98.9637 19.3543 99.2525 19.6834 99.4585 20.1072C99.6668 20.5309 99.771 21.0269 99.771 21.5951C99.771 22.1585 99.6668 22.651 99.4585 23.0724C99.2525 23.4938 98.9637 23.8216 98.592 24.056C98.2227 24.2904 97.7918 24.4076 97.2994 24.4076ZM97.2994 23.6547C97.6734 23.6547 97.9812 23.5589 98.2227 23.3671C98.4641 23.1753 98.6429 22.9232 98.7589 22.6107C98.8749 22.2982 98.9329 21.9597 98.9329 21.5951C98.9329 21.2305 98.8749 20.8908 98.7589 20.5759C98.6429 20.261 98.4641 20.0065 98.2227 19.8124C97.9812 19.6183 97.6734 19.5212 97.2994 19.5212C96.9253 19.5212 96.6175 19.6183 96.3761 19.8124C96.1346 20.0065 95.9558 20.261 95.8398 20.5759C95.7238 20.8908 95.6658 21.2305 95.6658 21.5951C95.6658 21.9597 95.7238 22.2982 95.8398 22.6107C95.9558 22.9232 96.1346 23.1753 96.3761 23.3671C96.6175 23.5589 96.9253 23.6547 97.2994 23.6547ZM102.655 24.4218C102.31 24.4218 101.996 24.3567 101.714 24.2265C101.433 24.0939 101.209 23.9033 101.043 23.6547C100.877 23.4038 100.795 23.1008 100.795 22.7456C100.795 22.4331 100.856 22.1798 100.979 21.9857C101.102 21.7892 101.267 21.6353 101.473 21.5241C101.679 21.4128 101.906 21.3299 102.155 21.2755C102.406 21.2187 102.658 21.1737 102.911 21.1405C103.242 21.0979 103.511 21.066 103.717 21.0447C103.925 21.021 104.077 20.9819 104.172 20.9275C104.269 20.873 104.317 20.7783 104.317 20.6434V20.615C104.317 20.2646 104.221 19.9923 104.03 19.7982C103.84 19.6041 103.553 19.507 103.167 19.507C102.767 19.507 102.453 19.5946 102.226 19.7698C101.998 19.945 101.839 20.132 101.746 20.3309L100.951 20.0468C101.093 19.7153 101.282 19.4573 101.519 19.2726C101.758 19.0856 102.019 18.9554 102.3 18.882C102.584 18.8063 102.864 18.7684 103.138 18.7684C103.314 18.7684 103.515 18.7897 103.742 18.8323C103.972 18.8725 104.193 18.9566 104.406 19.0844C104.622 19.2123 104.8 19.4052 104.942 19.6633C105.084 19.9213 105.155 20.267 105.155 20.7002V24.2939H104.317V23.5553H104.275C104.218 23.6737 104.123 23.8003 103.991 23.9353C103.858 24.0702 103.682 24.185 103.461 24.2797C103.241 24.3744 102.973 24.4218 102.655 24.4218ZM102.783 23.6689C103.115 23.6689 103.394 23.6038 103.621 23.4736C103.851 23.3434 104.024 23.1753 104.14 22.9694C104.258 22.7634 104.317 22.5468 104.317 22.3195V21.5525C104.282 21.5951 104.204 21.6341 104.083 21.6697C103.965 21.7028 103.827 21.7324 103.671 21.7584C103.517 21.7821 103.367 21.8034 103.22 21.8224C103.076 21.8389 102.958 21.8531 102.868 21.865C102.651 21.8934 102.447 21.9395 102.258 22.0035C102.071 22.065 101.919 22.1585 101.803 22.284C101.689 22.4071 101.633 22.5752 101.633 22.7883C101.633 23.0795 101.74 23.2996 101.956 23.4488C102.174 23.5956 102.449 23.6689 102.783 23.6689ZM108.745 24.4076C108.29 24.4076 107.889 24.2928 107.541 24.0631C107.193 23.8311 106.921 23.5044 106.724 23.083C106.528 22.6592 106.429 22.1585 106.429 21.5809C106.429 21.008 106.528 20.5108 106.724 20.0894C106.921 19.668 107.194 19.3425 107.544 19.1128C107.895 18.8832 108.3 18.7684 108.759 18.7684C109.114 18.7684 109.395 18.8276 109.6 18.9459C109.809 19.0619 109.967 19.1945 110.076 19.3437C110.188 19.4904 110.274 19.6112 110.336 19.7059H110.407V17.0212H111.245V24.2939H110.435V23.4559H110.336C110.274 23.5553 110.186 23.6808 110.073 23.8323C109.959 23.9814 109.797 24.1152 109.586 24.2336C109.376 24.3496 109.095 24.4076 108.745 24.4076ZM108.858 23.6547C109.194 23.6547 109.479 23.5671 109.711 23.392C109.943 23.2144 110.119 22.9694 110.24 22.6569C110.36 22.342 110.421 21.9786 110.421 21.5667C110.421 21.1595 110.362 20.8032 110.243 20.4978C110.125 20.19 109.95 19.9509 109.718 19.7805C109.486 19.6076 109.199 19.5212 108.858 19.5212C108.503 19.5212 108.207 19.6124 107.971 19.7947C107.736 19.9746 107.56 20.2196 107.441 20.5297C107.325 20.8375 107.267 21.1831 107.267 21.5667C107.267 21.9549 107.327 22.3077 107.445 22.6249C107.566 22.9398 107.743 23.1907 107.978 23.3778C108.214 23.5624 108.508 23.6547 108.858 23.6547ZM117.924 24.4076C117.432 24.4076 117 24.2904 116.628 24.056C116.259 23.8216 115.97 23.4938 115.762 23.0724C115.556 22.651 115.453 22.1585 115.453 21.5951C115.453 21.0269 115.556 20.5309 115.762 20.1072C115.97 19.6834 116.259 19.3543 116.628 19.1199C117 18.8856 117.432 18.7684 117.924 18.7684C118.417 18.7684 118.848 18.8856 119.217 19.1199C119.589 19.3543 119.877 19.6834 120.083 20.1072C120.292 20.5309 120.396 21.0269 120.396 21.5951C120.396 22.1585 120.292 22.651 120.083 23.0724C119.877 23.4938 119.589 23.8216 119.217 24.056C118.848 24.2904 118.417 24.4076 117.924 24.4076ZM117.924 23.6547C118.298 23.6547 118.606 23.5589 118.848 23.3671C119.089 23.1753 119.268 22.9232 119.384 22.6107C119.5 22.2982 119.558 21.9597 119.558 21.5951C119.558 21.2305 119.5 20.8908 119.384 20.5759C119.268 20.261 119.089 20.0065 118.848 19.8124C118.606 19.6183 118.298 19.5212 117.924 19.5212C117.55 19.5212 117.243 19.6183 117.001 19.8124C116.76 20.0065 116.581 20.261 116.465 20.5759C116.349 20.8908 116.291 21.2305 116.291 21.5951C116.291 21.9597 116.349 22.2982 116.465 22.6107C116.581 22.9232 116.76 23.1753 117.001 23.3671C117.243 23.5589 117.55 23.6547 117.924 23.6547ZM122.513 21.0127V24.2939H121.675V18.8394H122.485V19.6917H122.556C122.684 19.4147 122.878 19.1921 123.138 19.0241C123.399 18.8536 123.735 18.7684 124.147 18.7684C124.516 18.7684 124.839 18.8441 125.116 18.9956C125.393 19.1448 125.609 19.3721 125.763 19.6775C125.916 19.9805 125.993 20.364 125.993 20.828V24.2939H125.155V20.8849C125.155 20.4564 125.044 20.1225 124.822 19.8834C124.599 19.642 124.294 19.5212 123.905 19.5212C123.638 19.5212 123.399 19.5792 123.188 19.6952C122.98 19.8112 122.815 19.9805 122.694 20.203C122.574 20.4256 122.513 20.6955 122.513 21.0127ZM132.71 18.8394V19.5496H129.883V18.8394H132.71ZM130.707 17.5326H131.545V22.7314C131.545 22.9682 131.579 23.1457 131.648 23.2641C131.719 23.3801 131.809 23.4582 131.918 23.4985C132.029 23.5364 132.146 23.5553 132.269 23.5553C132.362 23.5553 132.437 23.5506 132.496 23.5411C132.556 23.5293 132.603 23.5198 132.638 23.5127L132.809 24.2655C132.752 24.2868 132.673 24.3081 132.571 24.3295C132.469 24.3531 132.34 24.365 132.184 24.365C131.947 24.365 131.715 24.3141 131.488 24.2123C131.263 24.1105 131.076 23.9554 130.927 23.7471C130.78 23.5387 130.707 23.276 130.707 22.9587V17.5326ZM134.925 21.0127V24.2939H134.087V17.0212H134.925V19.6917H134.996C135.124 19.4099 135.316 19.1862 135.572 19.0205C135.83 18.8524 136.173 18.7684 136.602 18.7684C136.973 18.7684 137.299 18.843 137.578 18.9921C137.857 19.1389 138.074 19.365 138.228 19.6704C138.384 19.9734 138.462 20.3593 138.462 20.828V24.2939H137.624V20.8849C137.624 20.4516 137.512 20.1166 137.287 19.8799C137.064 19.6408 136.755 19.5212 136.36 19.5212C136.085 19.5212 135.839 19.5792 135.621 19.6952C135.406 19.8112 135.236 19.9805 135.11 20.203C134.987 20.4256 134.925 20.6955 134.925 21.0127ZM142.282 24.4076C141.757 24.4076 141.304 24.2916 140.922 24.0596C140.544 23.8252 140.251 23.4985 140.045 23.0795C139.842 22.6581 139.74 22.168 139.74 21.6093C139.74 21.0506 139.842 20.5581 140.045 20.132C140.251 19.7035 140.538 19.3697 140.905 19.1306C141.274 18.8891 141.705 18.7684 142.197 18.7684C142.481 18.7684 142.762 18.8157 143.039 18.9104C143.316 19.0051 143.568 19.159 143.795 19.3721C144.023 19.5828 144.204 19.8621 144.339 20.2101C144.474 20.5581 144.541 20.9867 144.541 21.4956V21.8508H140.336V21.1263H143.689C143.689 20.8186 143.627 20.5439 143.504 20.3025C143.383 20.061 143.211 19.8704 142.986 19.7307C142.763 19.5911 142.5 19.5212 142.197 19.5212C141.863 19.5212 141.575 19.6041 141.331 19.7698C141.089 19.9331 140.903 20.1462 140.773 20.409C140.643 20.6718 140.578 20.9535 140.578 21.2542V21.7371C140.578 22.1491 140.649 22.4983 140.791 22.7847C140.935 23.0688 141.135 23.2854 141.391 23.4346C141.647 23.5814 141.944 23.6547 142.282 23.6547C142.503 23.6547 142.702 23.624 142.879 23.5624C143.059 23.4985 143.214 23.4038 143.344 23.2783C143.474 23.1505 143.575 22.9919 143.646 22.8025L144.456 23.0297C144.371 23.3044 144.227 23.5458 144.026 23.7542C143.825 23.9601 143.576 24.1211 143.28 24.2371C142.984 24.3508 142.652 24.4076 142.282 24.4076Z" fill="#203A59"/>
<rect x="201" y="1.29395" width="170" height="60" rx="16" stroke="#203A59" stroke-width="2"/>
<path d="M262.818 37.4346C262.729 37.1235 262.603 36.8486 262.441 36.61C262.279 36.3671 262.081 36.1626 261.847 35.9964C261.616 35.8259 261.352 35.6959 261.054 35.6064C260.76 35.517 260.434 35.4722 260.076 35.4722C259.407 35.4722 258.819 35.6384 258.312 35.9708C257.809 36.3032 257.417 36.7868 257.136 37.4218C256.854 38.0525 256.714 38.8238 256.714 39.7357C256.714 40.6476 256.852 41.4232 257.129 42.0624C257.406 42.7016 257.798 43.1895 258.305 43.5262C258.812 43.8586 259.411 44.0248 260.102 44.0248C260.728 44.0248 261.263 43.914 261.706 43.6924C262.153 43.4665 262.494 43.1491 262.729 42.74C262.967 42.3309 263.087 41.8472 263.087 41.289L263.649 41.3721H260.274V39.2883H265.752V40.9374C265.752 42.088 265.509 43.0766 265.023 43.9033C264.538 44.7258 263.869 45.3607 263.016 45.8081C262.164 46.2513 261.188 46.4729 260.089 46.4729C258.862 46.4729 257.783 46.2023 256.854 45.6611C255.925 45.1157 255.201 44.3422 254.681 43.3408C254.165 42.3351 253.908 41.142 253.908 39.7613C253.908 38.7002 254.061 37.7542 254.368 36.9232C254.679 36.088 255.114 35.3806 255.672 34.801C256.23 34.2215 256.88 33.7805 257.621 33.4779C258.363 33.1753 259.166 33.0241 260.031 33.0241C260.773 33.0241 261.463 33.1327 262.102 33.3501C262.741 33.5631 263.308 33.8657 263.803 34.2577C264.301 34.6498 264.708 35.1164 265.023 35.6576C265.339 36.1945 265.541 36.7868 265.631 37.4346H262.818ZM272.216 46.4857C271.223 46.4857 270.365 46.2748 269.64 45.8529C268.92 45.4268 268.364 44.8344 267.972 44.0759C267.58 43.3131 267.384 42.4289 267.384 41.4232C267.384 40.409 267.58 39.5226 267.972 38.7641C268.364 38.0013 268.92 37.409 269.64 36.9871C270.365 36.561 271.223 36.3479 272.216 36.3479C273.209 36.3479 274.066 36.561 274.786 36.9871C275.51 37.409 276.068 38.0013 276.46 38.7641C276.852 39.5226 277.048 40.409 277.048 41.4232C277.048 42.4289 276.852 43.3131 276.46 44.0759C276.068 44.8344 275.51 45.4268 274.786 45.8529C274.066 46.2748 273.209 46.4857 272.216 46.4857ZM272.229 44.3763C272.681 44.3763 273.058 44.2485 273.36 43.9928C273.663 43.7329 273.891 43.3792 274.044 42.9317C274.202 42.4843 274.281 41.9751 274.281 41.404C274.281 40.833 274.202 40.3238 274.044 39.8763C273.891 39.4289 273.663 39.0752 273.36 38.8153C273.058 38.5553 272.681 38.4253 272.229 38.4253C271.773 38.4253 271.389 38.5553 271.078 38.8153C270.771 39.0752 270.539 39.4289 270.382 39.8763C270.228 40.3238 270.151 40.833 270.151 41.404C270.151 41.9751 270.228 42.4843 270.382 42.9317C270.539 43.3792 270.771 43.7329 271.078 43.9928C271.389 44.2485 271.773 44.3763 272.229 44.3763ZM283.255 46.4857C282.262 46.4857 281.404 46.2748 280.679 45.8529C279.959 45.4268 279.403 44.8344 279.011 44.0759C278.619 43.3131 278.423 42.4289 278.423 41.4232C278.423 40.409 278.619 39.5226 279.011 38.7641C279.403 38.0013 279.959 37.409 280.679 36.9871C281.404 36.561 282.262 36.3479 283.255 36.3479C284.248 36.3479 285.105 36.561 285.825 36.9871C286.549 37.409 287.107 38.0013 287.499 38.7641C287.892 39.5226 288.088 40.409 288.088 41.4232C288.088 42.4289 287.892 43.3131 287.499 44.0759C287.107 44.8344 286.549 45.4268 285.825 45.8529C285.105 46.2748 284.248 46.4857 283.255 46.4857ZM283.268 44.3763C283.72 44.3763 284.097 44.2485 284.399 43.9928C284.702 43.7329 284.93 43.3792 285.083 42.9317C285.241 42.4843 285.32 41.9751 285.32 41.404C285.32 40.833 285.241 40.3238 285.083 39.8763C284.93 39.4289 284.702 39.0752 284.399 38.8153C284.097 38.5553 283.72 38.4253 283.268 38.4253C282.812 38.4253 282.428 38.5553 282.117 38.8153C281.811 39.0752 281.578 39.4289 281.421 39.8763C281.267 40.3238 281.191 40.833 281.191 41.404C281.191 41.9751 281.267 42.4843 281.421 42.9317C281.578 43.3792 281.811 43.7329 282.117 43.9928C282.428 44.2485 282.812 44.3763 283.268 44.3763ZM294.281 50.1803C293.399 50.1803 292.643 50.0589 292.012 49.816C291.386 49.5773 290.887 49.2513 290.517 48.838C290.146 48.4246 289.905 47.9601 289.794 47.4445L292.313 47.1057C292.389 47.3018 292.511 47.485 292.677 47.6555C292.843 47.8259 293.063 47.9623 293.335 48.0645C293.612 48.1711 293.949 48.2243 294.345 48.2243C294.938 48.2243 295.426 48.0795 295.809 47.7897C296.197 47.5042 296.391 47.0248 296.391 46.3515V44.5553H296.276C296.156 44.828 295.977 45.0858 295.739 45.3287C295.5 45.5716 295.193 45.7698 294.818 45.9232C294.443 46.0766 293.996 46.1533 293.476 46.1533C292.739 46.1533 292.068 45.9829 291.463 45.642C290.862 45.2968 290.382 44.7705 290.024 44.0631C289.671 43.3515 289.494 42.4523 289.494 41.3657C289.494 40.2535 289.675 39.3245 290.037 38.5787C290.399 37.833 290.881 37.2748 291.482 36.904C292.087 36.5333 292.749 36.3479 293.47 36.3479C294.019 36.3479 294.48 36.4417 294.85 36.6292C295.221 36.8124 295.519 37.0425 295.745 37.3195C295.975 37.5922 296.152 37.8607 296.276 38.1249H296.378V36.4758H299.082V46.3898C299.082 47.2251 298.877 47.9239 298.468 48.4864C298.059 49.0489 297.492 49.4708 296.768 49.752C296.048 50.0376 295.219 50.1803 294.281 50.1803ZM294.339 44.1079C294.778 44.1079 295.149 43.9992 295.451 43.7819C295.758 43.5603 295.992 43.2449 296.154 42.8358C296.32 42.4225 296.404 41.9282 296.404 41.3529C296.404 40.7776 296.323 40.279 296.161 39.8572C295.999 39.431 295.764 39.1008 295.458 38.8664C295.151 38.632 294.778 38.5148 294.339 38.5148C293.892 38.5148 293.514 38.6363 293.208 38.8792C292.901 39.1178 292.669 39.4502 292.511 39.8763C292.353 40.3025 292.274 40.7947 292.274 41.3529C292.274 41.9197 292.353 42.4097 292.511 42.8231C292.673 43.2322 292.905 43.5496 293.208 43.7755C293.514 43.9971 293.892 44.1079 294.339 44.1079ZM303.972 33.203V46.2939H301.249V33.203H303.972ZM310.627 46.4857C309.618 46.4857 308.748 46.2812 308.02 45.8721C307.295 45.4587 306.737 44.8749 306.345 44.1206C305.953 43.3621 305.757 42.4651 305.757 41.4296C305.757 40.4197 305.953 39.5333 306.345 38.7705C306.737 38.0077 307.289 37.4133 308 36.9871C308.716 36.561 309.556 36.3479 310.519 36.3479C311.167 36.3479 311.77 36.4523 312.328 36.6611C312.89 36.8657 313.38 37.1746 313.798 37.588C314.22 38.0013 314.548 38.5212 314.782 39.1476C315.017 39.7698 315.134 40.4985 315.134 41.3337V42.0816H306.843V40.3941H312.571C312.571 40.002 312.485 39.6547 312.315 39.3522C312.145 39.0496 311.908 38.8131 311.605 38.6427C311.307 38.468 310.96 38.3806 310.564 38.3806C310.15 38.3806 309.784 38.4765 309.464 38.6682C309.149 38.8557 308.902 39.1093 308.723 39.4289C308.544 39.7442 308.452 40.0958 308.448 40.4836V42.088C308.448 42.5738 308.537 42.9935 308.716 43.3472C308.9 43.7009 309.157 43.9736 309.49 44.1654C309.822 44.3572 310.216 44.453 310.672 44.453C310.975 44.453 311.252 44.4104 311.503 44.3252C311.755 44.24 311.97 44.1121 312.149 43.9417C312.328 43.7712 312.464 43.5624 312.558 43.3153L315.076 43.4814C314.949 44.0866 314.686 44.615 314.29 45.0667C313.898 45.5141 313.391 45.8635 312.769 46.115C312.151 46.3621 311.437 46.4857 310.627 46.4857ZM321.128 46.2939V33.203H326.293C327.286 33.203 328.132 33.3927 328.83 33.7719C329.529 34.1469 330.062 34.6689 330.428 35.338C330.799 36.0028 330.985 36.7698 330.985 37.6391C330.985 38.5084 330.797 39.2755 330.422 39.9403C330.047 40.605 329.504 41.1228 328.792 41.4935C328.085 41.8643 327.228 42.0496 326.222 42.0496H322.931V39.8316H325.775C326.308 39.8316 326.747 39.74 327.092 39.5567C327.441 39.3692 327.701 39.1114 327.872 38.7833C328.046 38.4509 328.134 38.0695 328.134 37.6391C328.134 37.2045 328.046 36.8252 327.872 36.5013C327.701 36.1732 327.441 35.9197 327.092 35.7407C326.742 35.5574 326.299 35.4658 325.762 35.4658H323.896V46.2939H321.128ZM335.454 33.203V46.2939H332.731V33.203H335.454ZM340.435 46.4793C339.809 46.4793 339.251 46.3706 338.76 46.1533C338.27 45.9317 337.883 45.6057 337.597 45.1753C337.316 44.7407 337.175 44.1995 337.175 43.5518C337.175 43.0063 337.275 42.5482 337.476 42.1775C337.676 41.8067 337.949 41.5084 338.294 41.2826C338.639 41.0567 339.031 40.8863 339.47 40.7712C339.913 40.6562 340.378 40.5752 340.863 40.5283C341.434 40.4687 341.895 40.4133 342.244 40.3621C342.594 40.3067 342.847 40.2258 343.005 40.1192C343.162 40.0127 343.241 39.855 343.241 39.6462V39.6079C343.241 39.203 343.113 38.8898 342.858 38.6682C342.606 38.4466 342.248 38.3358 341.784 38.3358C341.294 38.3358 340.904 38.4445 340.614 38.6618C340.324 38.8749 340.133 39.1434 340.039 39.4672L337.52 39.2627C337.648 38.6661 337.9 38.1505 338.275 37.7158C338.65 37.2769 339.133 36.9403 339.726 36.7059C340.322 36.4672 341.013 36.3479 341.797 36.3479C342.342 36.3479 342.864 36.4118 343.363 36.5397C343.866 36.6675 344.311 36.8657 344.699 37.1341C345.091 37.4026 345.4 37.7478 345.626 38.1697C345.851 38.5873 345.964 39.088 345.964 39.6718V46.2939H343.382V44.9324H343.305C343.148 45.2393 342.937 45.5099 342.672 45.7442C342.408 45.9743 342.091 46.1555 341.72 46.2876C341.349 46.4154 340.921 46.4793 340.435 46.4793ZM341.215 44.6001C341.616 44.6001 341.969 44.5212 342.276 44.3635C342.583 44.2016 342.824 43.9843 342.998 43.7116C343.173 43.4388 343.26 43.1299 343.26 42.7847V41.7428C343.175 41.7982 343.058 41.8493 342.909 41.8962C342.764 41.9388 342.6 41.9793 342.417 42.0177C342.233 42.0518 342.05 42.0837 341.867 42.1135C341.684 42.1391 341.518 42.1626 341.368 42.1839C341.049 42.2307 340.77 42.3053 340.531 42.4076C340.292 42.5099 340.107 42.6483 339.975 42.8231C339.843 42.9935 339.777 43.2066 339.777 43.4623C339.777 43.833 339.911 44.1164 340.18 44.3124C340.452 44.5042 340.797 44.6001 341.215 44.6001ZM349.406 49.9758C349.061 49.9758 348.737 49.9481 348.435 49.8927C348.137 49.8415 347.889 49.7755 347.693 49.6945L348.307 47.6618C348.627 47.7599 348.914 47.8131 349.17 47.8216C349.43 47.8302 349.654 47.7705 349.841 47.6427C350.033 47.5148 350.188 47.2975 350.308 46.9907L350.468 46.5752L346.945 36.4758H349.809L351.842 43.686H351.944L353.996 36.4758H356.879L353.063 47.355C352.879 47.8834 352.63 48.3437 352.315 48.7357C352.004 49.132 351.61 49.4367 351.132 49.6498C350.655 49.8671 350.08 49.9758 349.406 49.9758Z" fill="#203A59"/>
<path d="M262.852 19.2939C262.774 19.0548 262.671 18.8406 262.543 18.6512C262.418 18.4594 262.268 18.2961 262.092 18.1611C261.92 18.0262 261.723 17.9232 261.503 17.8522C261.283 17.7812 261.041 17.7456 260.778 17.7456C260.348 17.7456 259.956 17.8569 259.603 18.0795C259.25 18.302 258.97 18.6299 258.761 19.0631C258.553 19.4964 258.449 20.0278 258.449 20.6576C258.449 21.2873 258.554 21.8188 258.765 22.252C258.976 22.6853 259.261 23.0132 259.621 23.2357C259.981 23.4582 260.385 23.5695 260.835 23.5695C261.252 23.5695 261.619 23.4807 261.936 23.3032C262.256 23.1233 262.504 22.8699 262.682 22.5432C262.862 22.2142 262.952 21.8271 262.952 21.382L263.222 21.4388H261.034V20.6576H263.804V21.4388C263.804 22.0378 263.676 22.5586 263.42 23.0013C263.167 23.444 262.817 23.7873 262.369 24.0312C261.924 24.2726 261.413 24.3934 260.835 24.3934C260.191 24.3934 259.625 24.2419 259.138 23.9388C258.652 23.6358 258.274 23.2049 258.001 22.6462C257.732 22.0875 257.597 21.4246 257.597 20.6576C257.597 20.0823 257.674 19.565 257.827 19.1057C257.984 18.6441 258.204 18.2511 258.488 17.9268C258.772 17.6024 259.108 17.3538 259.496 17.181C259.885 17.0082 260.312 16.9218 260.778 16.9218C261.162 16.9218 261.519 16.9798 261.851 17.0958C262.185 17.2094 262.482 17.3716 262.742 17.5823C263.005 17.7906 263.224 18.0404 263.399 18.3316C263.574 18.6204 263.695 18.9412 263.761 19.2939H262.852ZM267.486 24.4076C266.96 24.4076 266.507 24.2916 266.126 24.0596C265.747 23.8252 265.454 23.4985 265.248 23.0795C265.045 22.6581 264.943 22.168 264.943 21.6093C264.943 21.0506 265.045 20.5581 265.248 20.132C265.454 19.7035 265.741 19.3697 266.108 19.1306C266.477 18.8891 266.908 18.7684 267.4 18.7684C267.684 18.7684 267.965 18.8157 268.242 18.9104C268.519 19.0051 268.771 19.159 268.998 19.3721C269.226 19.5828 269.407 19.8621 269.542 20.2101C269.677 20.5581 269.744 20.9867 269.744 21.4956V21.8508H265.54V21.1263H268.892C268.892 20.8186 268.83 20.5439 268.707 20.3025C268.586 20.061 268.414 19.8704 268.189 19.7307C267.966 19.5911 267.703 19.5212 267.4 19.5212C267.067 19.5212 266.778 19.6041 266.534 19.7698C266.292 19.9331 266.107 20.1462 265.976 20.409C265.846 20.6718 265.781 20.9535 265.781 21.2542V21.7371C265.781 22.1491 265.852 22.4983 265.994 22.7847C266.139 23.0688 266.339 23.2854 266.594 23.4346C266.85 23.5814 267.147 23.6547 267.486 23.6547C267.706 23.6547 267.905 23.624 268.082 23.5624C268.262 23.4985 268.417 23.4038 268.547 23.2783C268.678 23.1505 268.778 22.9919 268.849 22.8025L269.659 23.0297C269.574 23.3044 269.43 23.5458 269.229 23.7542C269.028 23.9601 268.779 24.1211 268.483 24.2371C268.188 24.3508 267.855 24.4076 267.486 24.4076ZM273.391 18.8394V19.5496H270.564V18.8394H273.391ZM271.388 17.5326H272.226V22.7314C272.226 22.9682 272.261 23.1457 272.329 23.2641C272.4 23.3801 272.49 23.4582 272.599 23.4985C272.711 23.5364 272.828 23.5553 272.951 23.5553C273.043 23.5553 273.119 23.5506 273.178 23.5411C273.237 23.5293 273.285 23.5198 273.32 23.5127L273.491 24.2655C273.434 24.2868 273.354 24.3081 273.253 24.3295C273.151 24.3531 273.022 24.365 272.866 24.365C272.629 24.365 272.397 24.3141 272.17 24.2123C271.945 24.1105 271.758 23.9554 271.608 23.7471C271.462 23.5387 271.388 23.276 271.388 22.9587V17.5326ZM277.464 24.2939V18.8394H278.302V24.2939H277.464ZM277.89 17.9303C277.727 17.9303 277.586 17.8747 277.468 17.7634C277.352 17.6521 277.294 17.5184 277.294 17.3621C277.294 17.2059 277.352 17.0721 277.468 16.9608C277.586 16.8496 277.727 16.7939 277.89 16.7939C278.054 16.7939 278.193 16.8496 278.309 16.9608C278.428 17.0721 278.487 17.2059 278.487 17.3621C278.487 17.5184 278.428 17.6521 278.309 17.7634C278.193 17.8747 278.054 17.9303 277.89 17.9303ZM282.21 18.8394V19.5496H279.383V18.8394H282.21ZM280.207 17.5326H281.045V22.7314C281.045 22.9682 281.079 23.1457 281.148 23.2641C281.219 23.3801 281.309 23.4582 281.418 23.4985C281.529 23.5364 281.646 23.5553 281.769 23.5553C281.862 23.5553 281.937 23.5506 281.996 23.5411C282.056 23.5293 282.103 23.5198 282.138 23.5127L282.309 24.2655C282.252 24.2868 282.173 24.3081 282.071 24.3295C281.969 24.3531 281.84 24.365 281.684 24.365C281.447 24.365 281.215 24.3141 280.988 24.2123C280.763 24.1105 280.576 23.9554 280.427 23.7471C280.28 23.5387 280.207 23.276 280.207 22.9587V17.5326ZM288.499 24.4076C288.006 24.4076 287.574 24.2904 287.202 24.056C286.833 23.8216 286.544 23.4938 286.336 23.0724C286.13 22.651 286.027 22.1585 286.027 21.5951C286.027 21.0269 286.13 20.5309 286.336 20.1072C286.544 19.6834 286.833 19.3543 287.202 19.1199C287.574 18.8856 288.006 18.7684 288.499 18.7684C288.991 18.7684 289.422 18.8856 289.791 19.1199C290.163 19.3543 290.452 19.6834 290.658 20.1072C290.866 20.5309 290.97 21.0269 290.97 21.5951C290.97 22.1585 290.866 22.651 290.658 23.0724C290.452 23.4938 290.163 23.8216 289.791 24.056C289.422 24.2904 288.991 24.4076 288.499 24.4076ZM288.499 23.6547C288.873 23.6547 289.18 23.5589 289.422 23.3671C289.663 23.1753 289.842 22.9232 289.958 22.6107C290.074 22.2982 290.132 21.9597 290.132 21.5951C290.132 21.2305 290.074 20.8908 289.958 20.5759C289.842 20.261 289.663 20.0065 289.422 19.8124C289.18 19.6183 288.873 19.5212 288.499 19.5212C288.125 19.5212 287.817 19.6183 287.575 19.8124C287.334 20.0065 287.155 20.261 287.039 20.5759C286.923 20.8908 286.865 21.2305 286.865 21.5951C286.865 21.9597 286.923 22.2982 287.039 22.6107C287.155 22.9232 287.334 23.1753 287.575 23.3671C287.817 23.5589 288.125 23.6547 288.499 23.6547ZM293.088 21.0127V24.2939H292.249V18.8394H293.059V19.6917H293.13C293.258 19.4147 293.452 19.1921 293.713 19.0241C293.973 18.8536 294.309 18.7684 294.721 18.7684C295.09 18.7684 295.414 18.8441 295.691 18.9956C295.968 19.1448 296.183 19.3721 296.337 19.6775C296.491 19.9805 296.568 20.364 296.568 20.828V24.2939H295.73V20.8849C295.73 20.4564 295.618 20.1225 295.396 19.8834C295.173 19.642 294.868 19.5212 294.48 19.5212C294.212 19.5212 293.973 19.5792 293.762 19.6952C293.554 19.8112 293.389 19.9805 293.269 20.203C293.148 20.4256 293.088 20.6955 293.088 21.0127Z" fill="#203A59"/>
<g clip-path="url(#clip1_0_3968)">
<path d="M216.571 15.7934C216.169 16.2748 215.967 16.891 216.004 17.5165V44.7411C215.967 45.3666 216.169 45.9828 216.571 46.4642L216.657 46.5504L231.906 31.3134V30.9565L216.657 15.7073L216.571 15.7934Z" fill="url(#paint0_linear_0_3968)"/>
<path d="M236.952 36.3965L231.906 31.3134V30.9565L236.952 25.8611L237.063 25.9226L243.106 29.3565C244.829 30.3288 244.829 31.9288 243.106 32.9134L237.087 36.3349L236.952 36.3965Z" fill="url(#paint1_linear_0_3968)"/>
<path d="M237.1 36.3225L231.906 31.1287L216.571 46.464C217.295 47.101 218.37 47.132 219.131 46.5379L237.112 36.3225" fill="url(#paint2_linear_0_3968)"/>
<path d="M237.1 25.9349L219.118 15.7195C218.358 15.1254 217.283 15.1564 216.558 15.7934L231.906 31.1287L237.1 25.9349Z" fill="url(#paint3_linear_0_3968)"/>
</g>
<defs>
<linearGradient id="paint0_linear_0_3968" x1="225.708" y1="17.2334" x2="212.636" y2="30.3058" gradientUnits="userSpaceOnUse">
<stop stop-color="#00A0FF"/>
<stop offset="0.01" stop-color="#00A1FF"/>
<stop offset="0.26" stop-color="#00BEFF"/>
<stop offset="0.51" stop-color="#00D2FF"/>
<stop offset="0.76" stop-color="#00DFFF"/>
<stop offset="1" stop-color="#00E3FF"/>
</linearGradient>
<linearGradient id="paint1_linear_0_3968" x1="245.358" y1="31.1288" x2="215.586" y2="31.1288" gradientUnits="userSpaceOnUse">
<stop stop-color="#FFE000"/>
<stop offset="0.41" stop-color="#FFBD00"/>
<stop offset="0.78" stop-color="#FFA500"/>
<stop offset="1" stop-color="#FF9C00"/>
</linearGradient>
<linearGradient id="paint2_linear_0_3968" x1="234.281" y1="36.0234" x2="211.95" y2="58.3452" gradientUnits="userSpaceOnUse">
<stop stop-color="#FF3A44"/>
<stop offset="1" stop-color="#C31162"/>
</linearGradient>
<linearGradient id="paint3_linear_0_3968" x1="212.706" y1="13.4204" x2="222.674" y2="23.3881" gradientUnits="userSpaceOnUse">
<stop stop-color="#32A071"/>
<stop offset="0.07" stop-color="#2DA771"/>
<stop offset="0.48" stop-color="#15CF74"/>
<stop offset="0.8" stop-color="#06E775"/>
<stop offset="1" stop-color="#00F076"/>
</linearGradient>
<clipPath id="clip0_0_3968">
<rect width="26" height="32" fill="white" transform="translate(23 15.2939)"/>
</clipPath>
<clipPath id="clip1_0_3968">
<rect width="29" height="32" fill="white" transform="translate(216 15.2939)"/>
</clipPath>
</defs>
</svg>
