<svg width="50" height="51" viewBox="0 0 50 51" fill="none" xmlns="http://www.w3.org/2000/svg">
<path d="M50 44.0439C50 45.7015 49.3415 47.2913 48.1694 48.4634C46.9973 49.6355 45.4076 50.2939 43.75 50.2939L6.25 50.2939C4.5924 50.2939 3.00269 49.6355 1.83058 48.4634C0.65848 47.2913 0 45.7015 0 44.0439L0 6.54395C0 4.88634 0.65848 3.29663 1.83058 2.12453C3.00269 0.952426 4.5924 0.293945 6.25 0.293945L43.75 0.293945C45.4076 0.293945 46.9973 0.952426 48.1694 2.12453C49.3415 3.29663 50 4.88634 50 6.54395L50 44.0439ZM35.9375 23.7314H17.8344L24.5438 17.0252C24.8371 16.7318 25.002 16.3339 25.002 15.9189C25.002 15.504 24.8371 15.1061 24.5438 14.8127C24.2504 14.5193 23.8524 14.3545 23.4375 14.3545C23.0226 14.3545 22.6246 14.5193 22.3312 14.8127L12.9562 24.1877C12.8107 24.3328 12.6953 24.5053 12.6165 24.6951C12.5378 24.8849 12.4972 25.0884 12.4972 25.2939C12.4972 25.4995 12.5378 25.703 12.6165 25.8928C12.6953 26.0826 12.8107 26.2551 12.9562 26.4002L22.3312 35.7752C22.6246 36.0686 23.0226 36.2334 23.4375 36.2334C23.8524 36.2334 24.2504 36.0686 24.5438 35.7752C24.8371 35.4818 25.002 35.0839 25.002 34.6689C25.002 34.254 24.8371 33.8561 24.5438 33.5627L17.8344 26.8564H35.9375C36.3519 26.8564 36.7493 26.6918 37.0424 26.3988C37.3354 26.1058 37.5 25.7083 37.5 25.2939C37.5 24.8795 37.3354 24.4821 37.0424 24.1891C36.7493 23.8961 36.3519 23.7314 35.9375 23.7314Z" fill="#E5E5E5"/>
</svg>
