<svg width="92" height="70" viewBox="0 0 92 70" fill="none" xmlns="http://www.w3.org/2000/svg">
<path d="M1.52174 45.6525H10.815C12.8053 51.8972 16.5108 57.4569 21.5087 61.6971C26.5065 65.9374 32.5956 68.6875 39.0812 69.6337C45.5669 70.58 52.1878 69.6842 58.1889 67.0487C64.1899 64.4132 69.3294 60.144 73.0209 54.7281L73.6966 57.8979L76.6731 57.2634L75.2229 50.4596C75.1504 50.1187 74.963 49.8129 74.6921 49.5936C74.4212 49.3742 74.0832 49.2545 73.7346 49.2544H66.9568V52.2979H70.9955C67.7623 57.3232 63.1843 61.3408 57.7817 63.8941C52.3791 66.4474 46.3686 67.4339 40.4333 66.7417C34.498 66.0495 28.8759 63.7062 24.2059 59.9782C19.5359 56.2502 16.0052 51.2869 14.0153 45.6525H19.7827C20.1863 45.6525 20.5733 45.4921 20.8587 45.2067C21.1441 44.9214 21.3044 44.5343 21.3044 44.1307V25.8698C21.3044 25.4662 21.1441 25.0791 20.8587 24.7937C20.5733 24.5083 20.1863 24.348 19.7827 24.348H1.52174C1.11815 24.348 0.731091 24.5083 0.445709 24.7937C0.160326 25.0791 0 25.4662 0 25.8698V44.1307C0 44.5343 0.160326 44.9214 0.445709 45.2067C0.731091 45.4921 1.11815 45.6525 1.52174 45.6525ZM12.174 27.3915V32.5381L11.3324 32.1165C11.1212 32.011 10.8883 31.956 10.6522 31.956C10.4161 31.956 10.1832 32.011 9.97199 32.1165L9.13047 32.5381V27.3915H12.174ZM3.04349 27.3915H6.08698V35.0002C6.08556 35.2603 6.15081 35.5164 6.2765 35.7441C6.4022 35.9717 6.58415 36.1634 6.80499 36.3008C7.02583 36.4381 7.27818 36.5166 7.53797 36.5287C7.79776 36.5408 8.05631 36.4861 8.28894 36.3698L10.6522 35.1798L13.0155 36.3622C13.2475 36.4782 13.5054 36.5329 13.7646 36.5211C14.0237 36.5094 14.2756 36.4316 14.4962 36.2951C14.7168 36.1587 14.8989 35.9681 15.0251 35.7414C15.1514 35.5148 15.2176 35.2597 15.2174 35.0002V27.3915H18.2609V42.609H3.04349V27.3915Z" fill="#36398E"/>
<path d="M91.1525 34.32L88.109 28.233C87.982 27.9789 87.7865 27.7654 87.5444 27.6166C87.3024 27.4679 87.0235 27.3899 86.7395 27.3915H79.1307V25.8697C79.1307 25.4661 78.9704 25.0791 78.685 24.7937C78.3996 24.5083 78.0126 24.348 77.609 24.348H77.4462C75.4536 18.1019 71.7456 12.5415 66.7453 8.30111C61.745 4.06071 55.6536 1.31099 49.1659 0.365591C42.6781 -0.579811 36.0553 0.317166 30.0528 2.95421C24.0503 5.59126 18.9097 9.8622 15.2174 15.2799V12.9425H12.174V19.7827C12.174 19.9997 12.2204 20.2141 12.31 20.4116C12.3997 20.6091 12.5306 20.7852 12.6938 20.928C12.8571 21.0708 13.049 21.1771 13.2567 21.2396C13.4644 21.3022 13.6831 21.3196 13.8981 21.2908L20.7673 20.3778L20.3625 17.3617L17.2262 17.7817C20.4484 12.7412 25.0216 8.70718 30.4247 6.13919C35.8279 3.5712 41.8437 2.57251 47.7868 3.25691C53.7299 3.94131 59.3612 6.28127 64.0392 10.0102C68.7172 13.7391 72.2538 18.7071 74.2459 24.348H62.3915C61.9879 24.348 61.6009 24.5083 61.3155 24.7937C61.0301 25.0791 60.8698 25.4661 60.8698 25.8697V41.0872C60.8698 41.4908 61.0301 41.8778 61.3155 42.1632C61.6009 42.4486 61.9879 42.6089 62.3915 42.6089H65.715C66.0249 43.4984 66.604 44.2695 67.3718 44.8151C68.1397 45.3607 69.0583 45.6538 70.0003 45.6538C70.9422 45.6538 71.8608 45.3607 72.6287 44.8151C73.3966 44.2695 73.9756 43.4984 74.2855 42.6089H79.4107C79.7206 43.4984 80.2997 44.2695 81.0675 44.8151C81.8354 45.3607 82.754 45.6538 83.696 45.6538C84.6379 45.6538 85.5566 45.3607 86.3244 44.8151C87.0923 44.2695 87.6713 43.4984 87.9812 42.6089H89.7829C90.1865 42.6089 90.5736 42.4486 90.859 42.1632C91.1444 41.8778 91.3047 41.4908 91.3047 41.0872V35.0002C91.3047 34.9835 91.294 34.9698 91.294 34.953C91.2924 34.7343 91.2441 34.5185 91.1525 34.32V34.32ZM85.799 30.435L87.3208 33.4784H79.1307V30.435H85.799ZM63.9133 27.3915H76.0872V33.4784H63.9133V27.3915ZM63.9133 36.5219H76.0872V39.5654H74.2855C73.9756 38.6759 73.3966 37.9049 72.6287 37.3592C71.8608 36.8136 70.9422 36.5205 70.0003 36.5205C69.0583 36.5205 68.1397 36.8136 67.3718 37.3592C66.604 37.9049 66.0249 38.6759 65.715 39.5654H63.9133V36.5219ZM70.0003 42.6089C69.6993 42.6089 69.4051 42.5197 69.1548 42.3525C68.9046 42.1852 68.7095 41.9476 68.5944 41.6695C68.4792 41.3915 68.449 41.0855 68.5078 40.7903C68.5665 40.4951 68.7114 40.224 68.9242 40.0111C69.137 39.7983 69.4082 39.6534 69.7034 39.5947C69.9986 39.5359 70.3045 39.5661 70.5826 39.6813C70.8607 39.7964 71.0983 39.9915 71.2655 40.2417C71.4328 40.492 71.522 40.7862 71.522 41.0872C71.522 41.4908 71.3617 41.8778 71.0763 42.1632C70.7909 42.4486 70.4039 42.6089 70.0003 42.6089ZM83.696 42.6089C83.395 42.6089 83.1008 42.5197 82.8505 42.3525C82.6003 42.1852 82.4052 41.9476 82.2901 41.6695C82.1749 41.3915 82.1447 41.0855 82.2035 40.7903C82.2622 40.4951 82.4071 40.224 82.6199 40.0111C82.8327 39.7983 83.1039 39.6534 83.3991 39.5947C83.6943 39.5359 84.0002 39.5661 84.2783 39.6813C84.5564 39.7964 84.794 39.9915 84.9613 40.2417C85.1285 40.492 85.2177 40.7862 85.2177 41.0872C85.2177 41.4908 85.0574 41.8778 84.772 42.1632C84.4866 42.4486 84.0996 42.6089 83.696 42.6089ZM87.9812 39.5654C87.6713 38.6759 87.0923 37.9049 86.3244 37.3592C85.5566 36.8136 84.6379 36.5205 83.696 36.5205C82.754 36.5205 81.8354 36.8136 81.0675 37.3592C80.2997 37.9049 79.7206 38.6759 79.4107 39.5654H79.1307V36.5219H88.2612V39.5654H87.9812Z" fill="#36398E"/>
<path d="M56.3046 35.0003C56.3046 32.5925 55.5906 30.2388 54.2529 28.2368C52.9152 26.2348 51.0139 24.6744 48.7894 23.753C46.5649 22.8316 44.1171 22.5905 41.7556 23.0602C39.3941 23.53 37.2249 24.6894 35.5223 26.392C33.8198 28.0945 32.6603 30.2637 32.1906 32.6252C31.7208 34.9868 31.9619 37.4345 32.8833 39.659C33.8048 41.8835 35.3651 43.7848 37.3671 45.1225C39.3691 46.4602 41.7228 47.1742 44.1306 47.1742C47.3582 47.1706 50.4526 45.8868 52.7349 43.6045C55.0172 41.3223 56.3009 38.2279 56.3046 35.0003ZM53.2611 35.0003C53.2571 37.1559 52.4913 39.2407 51.099 40.8864C49.7067 42.5321 47.7775 43.6327 45.6524 43.9938V41.9105C45.9405 41.8332 46.2216 41.7314 46.4924 41.6062C47.1544 41.2754 47.7113 40.7668 48.1005 40.1373C48.4896 39.5078 48.6958 38.7823 48.6958 38.0422C48.6958 37.3021 48.4896 36.5767 48.1005 35.9472C47.7113 35.3177 47.1544 34.8091 46.4924 34.4783L43.1263 32.7968C42.9698 32.7187 42.8383 32.5987 42.7463 32.45C42.6544 32.3014 42.6056 32.13 42.6056 31.9552C42.6056 31.7805 42.6544 31.6091 42.7463 31.4605C42.8383 31.3118 42.9698 31.1918 43.1263 31.1137C43.4373 30.9587 43.78 30.878 44.1276 30.878C44.4751 30.878 44.8178 30.9587 45.1289 31.1137L46.4908 31.7955C46.6697 31.8848 46.8644 31.938 47.0638 31.9521C47.2632 31.9662 47.4635 31.9408 47.6531 31.8775C47.8428 31.8142 48.0181 31.7142 48.169 31.5831C48.32 31.4521 48.4437 31.2926 48.533 31.1137C48.6223 30.9349 48.6756 30.7402 48.6897 30.5407C48.7037 30.3413 48.6784 30.1411 48.6151 29.9514C48.5518 29.7618 48.4517 29.5865 48.3207 29.4355C48.1896 29.2846 48.0301 29.1609 47.8513 29.0715L46.4908 28.3913C46.2195 28.2661 45.938 28.1642 45.6493 28.087V26.0067C47.775 26.3672 49.7049 27.4675 51.0978 29.1132C52.4907 30.759 53.257 32.8442 53.2611 35.0003V35.0003ZM35.0001 35.0003C35.0041 32.8446 35.7699 30.7598 37.1622 29.1141C38.5545 27.4684 40.4837 26.3678 42.6089 26.0067V28.09C42.3207 28.1673 42.0397 28.2691 41.7689 28.3944C41.1068 28.7251 40.5499 29.2338 40.1608 29.8633C39.7716 30.4927 39.5654 31.2182 39.5654 31.9583C39.5654 32.6984 39.7716 33.4238 40.1608 34.0533C40.5499 34.6828 41.1068 35.1915 41.7689 35.5222L45.135 37.2037C45.2914 37.2818 45.4229 37.4019 45.5149 37.5505C45.6069 37.6991 45.6556 37.8705 45.6556 38.0453C45.6556 38.2201 45.6069 38.3914 45.5149 38.54C45.4229 38.6887 45.2914 38.8088 45.135 38.8868C44.8239 39.0418 44.4812 39.1225 44.1337 39.1225C43.7861 39.1225 43.4434 39.0418 43.1323 38.8868L41.7704 38.2051C41.4092 38.0246 40.9911 37.9951 40.6081 38.123C40.2251 38.2508 39.9086 38.5256 39.7282 38.8868C39.5478 39.248 39.5183 39.6661 39.6461 40.0491C39.774 40.4321 40.0487 40.7486 40.4099 40.929L41.7704 41.6092C42.0417 41.7345 42.3232 41.8363 42.6119 41.9135V43.9938C40.4862 43.6334 38.5563 42.533 37.1634 40.8873C35.7705 39.2415 35.0043 37.1563 35.0001 35.0003V35.0003Z" fill="#36398E"/>
</svg>
