<svg width="111" height="70" viewBox="0 0 111 70" fill="none" xmlns="http://www.w3.org/2000/svg">
<path d="M109.651 43.0553L97.3758 28.4977C97.0202 28.0674 96.4963 27.8428 95.9537 27.8428H79.1881V21.7241C79.1881 20.695 78.3461 19.853 77.317 19.853H71.5725C70.6182 8.7383 61.2811 0 49.9419 0C38.6027 0 29.2469 8.7383 28.2926 19.853H20.2279C19.1988 19.853 18.3568 20.695 18.3568 21.7241V27.7867C18.3568 28.8158 19.1988 29.6578 20.2279 29.6578C21.2571 29.6578 22.0991 28.8158 22.0991 27.7867V23.5953H28.2926C29.2469 34.71 38.584 43.4483 49.9232 43.4483C61.2624 43.4483 70.5995 34.6913 71.5538 23.5953H75.4271V29.6953V29.714V52.4298H53.1603C52.1312 52.4298 51.2892 53.2719 51.2892 54.301C51.2892 55.3301 52.1312 56.1721 53.1603 56.1721H75.4458V59.3157H49.1186C49.0063 58.7918 48.8379 58.2866 48.6321 57.8001C48.6134 57.7626 48.5947 57.7439 48.5947 57.7252C48.3889 57.2574 48.1456 56.827 47.8836 56.3967C47.8088 56.2844 47.734 56.1909 47.6591 56.0786C47.4159 55.7418 47.1726 55.4424 46.8919 55.143C46.7797 55.0307 46.6674 54.9372 46.5551 54.8249C46.2744 54.5629 45.9751 54.3197 45.657 54.0952C45.526 54.0016 45.395 53.908 45.264 53.8332C44.9272 53.6274 44.5904 53.4403 44.2162 53.2718C44.0852 53.2157 43.9542 53.1409 43.8232 53.0847C43.4116 52.9163 42.9812 52.7853 42.5321 52.6731C42.4386 52.6544 42.3637 52.6169 42.2702 52.5982C41.7088 52.486 41.1475 52.4111 40.5674 52.4111C39.9874 52.4111 39.4073 52.486 38.8647 52.5982C38.7711 52.6169 38.6963 52.6544 38.6027 52.6731C38.1536 52.7853 37.7233 52.9163 37.3116 53.0847C37.1806 53.1409 37.0496 53.197 36.9187 53.2718C36.5631 53.4403 36.2076 53.6274 35.8708 53.8332C35.7398 53.908 35.6089 54.0016 35.4966 54.0952C35.1785 54.3197 34.8791 54.5629 34.5984 54.8436C34.4862 54.9372 34.3739 55.0495 34.2803 55.1617C33.9997 55.4611 33.7377 55.7792 33.4944 56.116C33.4196 56.2096 33.3448 56.3031 33.2699 56.4154C32.9892 56.8458 32.746 57.2948 32.5402 57.7626C32.5402 57.7813 32.5214 57.8 32.5214 57.8188C32.3156 58.3053 32.1472 58.8105 32.0349 59.3531H22.1365V55.8728C22.1365 54.8436 21.2945 54.0016 20.2654 54.0016C19.2362 54.0016 18.3942 54.8436 18.3942 55.8728V61.2243C18.3942 62.2534 19.2362 63.0954 20.2654 63.0954H32.0537C32.9144 67.0436 36.4135 70 40.6048 70C44.7962 70 48.2953 67.0436 49.156 63.0954H77.3357H84.2402C85.101 67.0436 88.6 70 92.7914 70C96.9828 70 100.482 67.0436 101.343 63.0954H108.247C109.276 63.0954 110.118 62.2534 110.118 61.2243V44.309C110.1 43.8225 109.931 43.3921 109.651 43.0553ZM49.9232 39.706C40.0061 39.706 31.9414 31.6413 31.9414 21.7241C31.9414 11.807 40.0061 3.74231 49.9232 3.74231C59.8403 3.74231 67.905 11.807 67.905 21.7241C67.905 31.6413 59.8403 39.706 49.9232 39.706ZM40.5674 66.2203C37.7981 66.2203 35.5527 63.9562 35.5527 61.1868C35.5527 58.4175 37.7981 56.1721 40.5674 56.1721C43.3367 56.1721 45.5821 58.4175 45.5821 61.1868C45.5821 63.9562 43.318 66.2203 40.5674 66.2203ZM92.754 66.2203C89.9847 66.2203 87.7393 63.9562 87.7393 61.1868C87.7393 58.4175 89.9847 56.1721 92.754 56.1721C95.5233 56.1721 97.7687 58.4175 97.7687 61.1868C97.7687 63.9562 95.5233 66.2203 92.754 66.2203ZM106.357 59.3157H101.324C101.212 58.8105 101.043 58.3053 100.856 57.8375C100.8 57.7065 100.725 57.5942 100.669 57.482C100.501 57.1264 100.313 56.7709 100.108 56.4341C99.9954 56.2657 99.8831 56.116 99.7708 55.9663C99.565 55.7044 99.3592 55.4424 99.1347 55.1991C98.985 55.0495 98.8353 54.8998 98.6856 54.7688C98.4423 54.5442 98.1991 54.3384 97.9371 54.1513C97.7687 54.0203 97.6003 53.908 97.4132 53.7958C97.1325 53.6274 96.8518 53.4777 96.5525 53.328C96.3653 53.2344 96.1782 53.1409 95.9911 53.066C95.6543 52.935 95.2988 52.8415 94.9433 52.7479C94.7749 52.7105 94.6065 52.6357 94.4193 52.6169C93.8767 52.5047 93.3341 52.4485 92.754 52.4485C92.1927 52.4485 91.6313 52.5047 91.0887 52.6169C90.9203 52.6544 90.7519 52.7105 90.5835 52.7479C90.2279 52.8415 89.8724 52.935 89.5356 53.066C89.3485 53.1409 89.1614 53.2344 88.9743 53.328C88.6749 53.4777 88.3942 53.6274 88.1135 53.7958C87.9264 53.908 87.758 54.0203 87.5896 54.1513C87.3276 54.3384 87.0844 54.5442 86.8412 54.7688C86.6915 54.9185 86.5418 55.0495 86.3921 55.1991C86.1675 55.4424 85.9617 55.7044 85.7559 55.9663C85.6436 56.116 85.5126 56.2657 85.4191 56.4341C85.1945 56.7709 85.0261 57.1264 84.8577 57.482C84.8016 57.6129 84.7267 57.7252 84.6706 57.8375C84.4648 58.3053 84.3151 58.8105 84.2028 59.3157H79.1694V31.5851H95.0555L106.339 44.9452V59.3157H106.357Z" fill="#FF3366"/>
<path d="M92.4536 33.9053H84.8754C83.8463 33.9053 83.0042 34.7473 83.0042 35.7764V43.2049C83.0042 44.2341 83.8463 45.0761 84.8754 45.0761H98.722C99.4517 45.0761 100.107 44.6457 100.425 43.9908C100.724 43.3359 100.631 42.55 100.163 41.9887L93.8944 34.5602C93.5389 34.1485 93.0149 33.9053 92.4536 33.9053ZM86.7653 41.3338V37.6476H91.5929L94.699 41.3338H86.7653Z" fill="#FF3366"/>
<path d="M6.64206 35.0282H23.7444C24.7736 35.0282 25.6156 34.1862 25.6156 33.157C25.6156 32.1279 24.7736 31.2859 23.7444 31.2859H6.64206C5.61293 31.2859 4.7709 32.1279 4.7709 33.157C4.7709 34.1862 5.59421 35.0282 6.64206 35.0282Z" fill="#FF3366"/>
<path d="M6.64261 40.417H1.87116C0.842021 40.417 0 41.259 0 42.2881C0 43.3173 0.842021 44.1593 1.87116 44.1593H6.6239C7.65303 44.1593 8.49506 43.3173 8.49506 42.2881C8.49506 41.259 7.67175 40.417 6.64261 40.417Z" fill="#FF3366"/>
<path d="M11.0959 42.2881C11.0959 43.3173 11.9379 44.1593 12.967 44.1593H32.0341C33.0632 44.1593 33.9053 43.3173 33.9053 42.2881C33.9053 41.259 33.0632 40.417 32.0341 40.417H12.967C11.9379 40.417 11.0959 41.2403 11.0959 42.2881Z" fill="#FF3366"/>
<path d="M31.9405 50.5025C31.9405 49.4734 31.0985 48.6313 30.0694 48.6313H12.967C11.9379 48.6313 11.0959 49.4734 11.0959 50.5025C11.0959 51.5316 11.9379 52.3737 12.967 52.3737H30.0694C31.0985 52.3737 31.9405 51.5316 31.9405 50.5025Z" fill="#FF3366"/>
<path d="M56.6021 19.853H51.7932V10.4036C51.7932 9.37449 50.9512 8.53247 49.9221 8.53247C48.893 8.53247 48.0509 9.37449 48.0509 10.4036V21.7241C48.0509 22.7533 48.893 23.5953 49.9221 23.5953H56.6021C57.6313 23.5953 58.4733 22.7533 58.4733 21.7241C58.4733 20.695 57.65 19.853 56.6021 19.853Z" fill="#FF3366"/>
</svg>
