<svg width="72" height="72" viewBox="0 0 72 72" fill="none" xmlns="http://www.w3.org/2000/svg">
<path d="M51.8881 65.1219C46.9788 67.8738 41.3869 69.3378 35.729 69.3378C28.9043 69.3378 22.8281 67.5766 17.6545 64.1533L20.0322 61.2142C20.0762 61.2583 20.1202 61.3133 20.1863 61.3573C24.8535 64.2523 30.2252 65.7824 35.74 65.7824C39.5156 65.7824 43.2031 65.0779 46.6815 63.6909C47.0998 63.5258 47.309 63.0415 47.1439 62.6232C46.9788 62.2049 46.4944 61.9958 46.0761 62.1609C42.7849 63.4708 39.3175 64.1312 35.751 64.1312C30.5444 64.1312 25.4699 62.6892 21.0669 59.9594L22.9822 57.5817C23.4445 57.0093 23.5436 56.2388 23.2354 55.5673C22.9272 54.8959 22.2887 54.4666 21.5512 54.4446L10.9069 54.0703C10.3014 54.0373 9.72904 54.3125 9.34378 54.7858C8.95851 55.2591 8.82642 55.8755 8.98053 56.47L11.5893 66.7951C11.7655 67.5106 12.3268 68.0499 13.0423 68.2041C13.1854 68.2371 13.3175 68.2481 13.4606 68.2481C14.033 68.2481 14.5834 67.9949 14.9577 67.5326L16.6418 65.4522C22.1236 69.1177 28.541 71 35.762 71C41.7061 71 47.5732 69.4699 52.7357 66.5749C53.132 66.3548 53.2751 65.8484 53.0549 65.4522C52.8348 65.0559 52.2844 64.9018 51.8881 65.1219ZM13.6367 66.4869C13.5487 66.5969 13.4276 66.5969 13.3616 66.5859C13.2955 66.5749 13.1854 66.5309 13.1524 66.3878L10.5436 56.0627C10.5106 55.9416 10.5656 55.8645 10.5986 55.8205C10.6317 55.7765 10.6977 55.7214 10.8078 55.7214H10.8188L21.4631 56.0957C21.6062 56.0957 21.6723 56.1948 21.7053 56.2608C21.7273 56.3158 21.7603 56.4369 21.6723 56.547L13.6367 66.4869Z" fill="#E24329" stroke="#E24329" stroke-width="0.5"/>
<path d="M20.0764 6.35238C25.283 3.65552 31.128 2.40065 37.0061 2.69786C43.8198 3.0501 49.7969 5.13054 54.7833 8.81808L52.2516 11.636C52.2076 11.581 52.1635 11.526 52.1085 11.4929C47.6064 8.35576 42.3117 6.55052 36.8079 6.26432C33.0323 6.06618 29.3228 6.57253 25.7673 7.78337C25.338 7.92647 25.1069 8.39979 25.25 8.82909C25.3931 9.25839 25.8664 9.48955 26.2957 9.34645C29.642 8.21266 33.1534 7.72833 36.7199 7.91546C41.9155 8.19065 46.9129 9.89683 51.1618 12.8469L49.1254 15.1144C48.6301 15.6648 48.498 16.4243 48.7622 17.1068C49.0264 17.7893 49.6538 18.2516 50.3913 18.3176L61.0026 19.2423C61.0577 19.2423 61.1127 19.2533 61.1788 19.2533C61.7291 19.2533 62.2355 19.0221 62.6097 18.6148C63.017 18.1635 63.1821 17.5581 63.0611 16.9527L61.0026 6.50649C60.8595 5.79099 60.3312 5.2186 59.6267 5.02046C58.9222 4.82233 58.1737 5.04248 57.6783 5.59286L55.8951 7.58523C50.6115 3.6335 44.2931 1.42098 37.0941 1.04672C30.9299 0.7275 24.7876 2.04841 19.3279 4.87736C18.9206 5.08651 18.7665 5.58185 18.9756 5.98913C19.1738 6.39641 19.6691 6.56153 20.0764 6.35238ZM58.9002 6.70462C58.9993 6.59455 59.1203 6.60556 59.1754 6.62757C59.2414 6.64959 59.3405 6.69362 59.3735 6.83672L61.4429 17.2829C61.465 17.404 61.4099 17.4811 61.3769 17.5251C61.3439 17.5581 61.2558 17.6242 61.1457 17.6132L50.5344 16.6885C50.3913 16.6775 50.3253 16.5784 50.3033 16.5124C50.2812 16.4574 50.2592 16.3363 50.3583 16.2262L58.9002 6.70462Z" fill="#E24329" stroke="#E24329" stroke-width="0.5"/>
<path d="M9.38779 47.1244C9.80608 46.9593 10.0152 46.475 9.85011 46.0567C8.5402 42.7654 7.87975 39.298 7.87975 35.7316C7.87975 30.525 9.32174 25.4505 12.0516 21.0474L14.4293 22.9628C14.7815 23.2489 15.2108 23.392 15.6401 23.392C15.9153 23.392 16.1795 23.337 16.4437 23.2159C17.1151 22.9077 17.5444 22.2693 17.5664 21.5318L17.9407 10.8874C17.9627 10.271 17.6985 9.70961 17.2252 9.32434C16.7519 8.93907 16.1354 8.80698 15.541 8.96109L5.2049 11.5589C4.48941 11.735 3.95004 12.2964 3.79593 13.0119C3.64182 13.7274 3.895 14.4649 4.46739 14.9272L6.54783 16.6114C2.87129 22.0821 1 28.5106 1 35.7206C1 41.4005 2.40897 47.0364 5.0618 52.0228C5.21591 52.298 5.4911 52.4631 5.78831 52.4631C5.9204 52.4631 6.05249 52.4301 6.17357 52.364C6.58085 52.1549 6.72395 51.6486 6.51481 51.2523C3.98306 46.497 2.64013 41.1253 2.64013 35.7206C2.64013 28.8958 4.40135 22.8197 7.82471 17.6461L10.7637 20.0237C10.7197 20.0678 10.6647 20.1118 10.6206 20.1778C7.72564 24.8451 6.19559 30.2168 6.19559 35.7316C6.19559 39.5072 6.90007 43.1947 8.28703 46.6731C8.41912 46.9923 8.72733 47.1905 9.05756 47.1905C9.17864 47.1905 9.28872 47.1685 9.38779 47.1244ZM5.40304 13.3641C5.41405 13.2981 5.45808 13.188 5.60118 13.155L15.9263 10.5462C15.9483 10.5352 15.9703 10.5352 15.9923 10.5352C16.0694 10.5352 16.1354 10.5682 16.1575 10.6012C16.2015 10.6342 16.2675 10.7003 16.2565 10.8214L15.8823 21.4657C15.8823 21.6088 15.7832 21.6749 15.7172 21.7079C15.6621 21.7299 15.541 21.7629 15.431 21.6749L5.48009 13.6393C5.39203 13.5513 5.39203 13.4302 5.40304 13.3641Z" fill="#E24329" stroke="#E24329" stroke-width="0.5"/>
<path d="M67.5301 20.156C67.332 19.7487 66.8366 19.5726 66.4294 19.7708C66.0221 19.9689 65.846 20.4642 66.0441 20.8715C68.4658 25.858 69.5885 31.4388 69.2913 36.9976C68.9391 43.8113 66.8587 49.7885 63.1601 54.7749L60.3422 52.2432C60.3972 52.1991 60.4522 52.1661 60.4963 52.1111C63.6334 47.609 65.4387 42.3143 65.7249 36.8105C65.923 33.0349 65.4167 29.3254 64.2058 25.7699C64.0627 25.3406 63.5894 25.1094 63.1601 25.2525C62.7308 25.3956 62.4996 25.869 62.6427 26.2983C63.7765 29.6446 64.2609 33.156 64.0737 36.7225C63.7985 41.918 62.0924 46.9155 59.1423 51.1644L56.8748 49.128C56.3244 48.6327 55.5649 48.5006 54.8824 48.7648C54.1999 49.04 53.7376 49.6564 53.6716 50.3939L52.7469 61.0052C52.6919 61.6106 52.923 62.194 53.3744 62.6013C53.7376 62.9205 54.1889 63.0967 54.6512 63.0967C54.7723 63.0967 54.9044 63.0857 55.0255 63.0636L65.4717 61.0052C66.1872 60.8621 66.7596 60.3338 66.9577 59.6293C67.1559 58.9248 66.9357 58.1763 66.3853 57.6809L64.393 55.8977C68.3447 50.614 70.5572 44.2957 70.9315 37.0967C71.2507 31.2517 70.0619 25.3956 67.5301 20.156ZM65.3726 59.178C65.3506 59.244 65.3066 59.3431 65.1635 59.3761L54.7063 61.4455C54.5852 61.4675 54.5081 61.4125 54.4641 61.3795C54.4311 61.3465 54.365 61.2694 54.376 61.1483L55.3007 50.537C55.3117 50.3939 55.4108 50.3278 55.4768 50.3058C55.4988 50.2948 55.5428 50.2838 55.5869 50.2838C55.6419 50.2838 55.708 50.3058 55.763 50.3609L65.2846 58.9028C65.3946 59.0018 65.3836 59.1229 65.3726 59.178Z" fill="#E24329" stroke="#E24329" stroke-width="0.5"/>
<path d="M55.9832 39.199C56.8528 39.1 57.5133 38.3625 57.5133 37.4819V34.3447C57.5133 33.4641 56.8528 32.7266 55.9832 32.6275L52.6919 32.1762C52.2737 30.2499 51.5141 28.4226 50.4354 26.6504L52.4498 24.1076C52.9892 23.4141 52.9341 22.4345 52.3177 21.807L50.1052 19.5835C49.4887 18.9671 48.4981 18.901 47.8046 19.4514L45.1738 21.4438C43.4896 20.365 41.6513 19.6055 39.6479 19.1212L39.2737 15.929C39.1746 15.0594 38.4371 14.3989 37.5565 14.3989H34.4303C33.5497 14.3989 32.8122 15.0594 32.7132 15.929L32.2618 19.1872C30.3245 19.6055 28.4972 20.365 26.714 21.4438L24.1823 19.4514C23.4888 18.912 22.5091 18.9671 21.8817 19.5835L19.6692 21.807C19.0527 22.4235 18.9977 23.4141 19.5371 24.1076L21.5404 26.7384C20.4727 28.4226 19.7242 30.2499 19.2399 32.2532L16.0036 32.6385C15.134 32.7376 14.4736 33.4751 14.4736 34.3557V37.4929C14.4736 38.3735 15.134 39.111 16.0036 39.21L19.3169 39.6614C19.7462 41.5877 20.5057 43.4039 21.5735 45.1652L19.5481 47.7299C19.0087 48.4124 19.0637 49.4031 19.6802 50.0305L21.8927 52.243C22.5091 52.8595 23.4998 52.9255 24.1933 52.3751L26.7801 50.3387C27.1433 50.0525 27.1984 49.5352 26.9122 49.1829C26.626 48.8197 26.1086 48.7646 25.7564 49.0508L23.0595 51.0873L20.836 48.7646L22.8614 46.1999C23.3127 45.6275 23.3567 44.8239 22.9494 44.1965C21.9918 42.6885 21.3093 41.0483 20.913 39.3091C20.7479 38.5826 20.1535 38.0432 19.427 37.9552L16.1137 37.4929L16.1797 34.2786L19.416 33.8934C20.1425 33.8053 20.7369 33.2549 20.902 32.5284C21.2763 30.7892 21.9587 29.1381 22.9274 27.6191C23.3237 26.9916 23.2907 26.1881 22.8283 25.6157L20.836 22.9738L23.1476 20.7503L25.6793 22.7427C26.2517 23.194 27.0663 23.238 27.6937 22.8307C29.2127 21.8621 30.8639 21.1796 32.6141 20.7943C33.3406 20.6292 33.891 20.0348 33.979 19.3083L34.4303 16.0501L37.6446 16.1161L38.0188 19.3083C38.1069 20.0348 38.6573 20.6402 39.3838 20.7943C41.123 21.1686 42.7741 21.8621 44.3042 22.8307C44.9316 23.227 45.7351 23.194 46.3186 22.7427L48.9494 20.7503L51.1619 23.0729L49.1475 25.6157C48.6962 26.1881 48.6522 27.0026 49.0594 27.6191C50.0281 29.1381 50.7106 30.7782 51.0848 32.5174C51.2389 33.2439 51.8444 33.7943 52.5709 33.8714L55.8621 34.3337L55.7961 37.5589L52.5489 37.9442C51.8224 38.0322 51.2279 38.5716 51.0628 39.2981C50.6776 41.0263 49.9951 42.6664 49.0374 44.1635C48.6301 44.7909 48.6742 45.5945 49.1255 46.1779L51.1619 48.8637L48.8503 51.0873L46.2635 49.0508C45.9113 48.7646 45.3829 48.8307 45.1077 49.1829C44.8215 49.5462 44.8876 50.0635 45.2398 50.3387L47.8266 52.3751C48.1458 52.6283 48.5201 52.7494 48.8943 52.7494C49.3456 52.7494 49.7859 52.5733 50.1162 52.243L52.3287 50.0195C52.9451 49.4031 53.0002 48.4124 52.4608 47.7299L50.4244 45.0551C51.4921 43.3929 52.2516 41.5767 52.736 39.5843L55.9832 39.199Z" fill="#E24329" stroke="#E24329" stroke-width="0.5"/>
<path d="M32.0304 58.9687C32.4817 58.9687 32.856 58.5944 32.856 58.1431V45.4073C32.856 45.1651 32.7459 44.923 32.5588 44.7689L28.497 41.4226C28.6401 41.1033 28.7061 40.7401 28.7061 40.3658C28.7061 38.8798 27.4953 37.658 25.9982 37.658C24.5012 37.658 23.2904 38.8688 23.2904 40.3658C23.2904 41.8629 24.5012 43.0737 25.9982 43.0737C26.5156 43.0737 26.9889 42.9196 27.4072 42.6664L31.1938 45.7926V58.1321C31.2048 58.5944 31.5681 58.9687 32.0304 58.9687ZM24.9525 40.3768C24.9525 39.7934 25.4258 39.3201 26.0093 39.3201C26.5927 39.3201 27.066 39.7934 27.066 40.3768C27.066 40.9602 26.5927 41.4336 26.0093 41.4336C25.4258 41.4336 24.9525 40.9602 24.9525 40.3768Z" fill="#E24329" stroke="#E24329" stroke-width="0.5"/>
<path d="M26.6696 29.1382C25.1835 29.1382 23.9617 30.349 23.9617 31.8461C23.9617 33.3431 25.1725 34.5539 26.6696 34.5539C27.1759 34.5539 27.6382 34.4108 28.0455 34.1576L29.8508 35.7758L30.8965 40.8503C30.9735 41.2355 31.3258 41.5107 31.7 41.5107C31.7551 41.5107 31.8101 41.5107 31.8652 41.4887C32.3165 41.4006 32.6027 40.9603 32.5036 40.509L31.4028 35.1703C31.3698 34.9942 31.2818 34.8401 31.1497 34.719L29.1353 32.9248C29.2784 32.5946 29.3664 32.2313 29.3664 31.8461C29.3664 30.349 28.1556 29.1382 26.6696 29.1382ZM25.6128 31.835C25.6128 31.2516 26.0862 30.7783 26.6696 30.7783C27.253 30.7783 27.7263 31.2516 27.7263 31.835C27.7263 32.4184 27.253 32.8918 26.6696 32.8918C26.0862 32.8918 25.6128 32.4184 25.6128 31.835Z" fill="#E24329" stroke="#E24329" stroke-width="0.5"/>
<path d="M39.1305 45.4073V58.1431C39.1305 58.5944 39.5047 58.9687 39.956 58.9687C40.4073 58.9687 40.7816 58.5944 40.7816 58.1431V45.7926L44.5682 42.6664C44.9755 42.9196 45.4598 43.0737 45.9772 43.0737C47.4632 43.0737 48.6741 41.8629 48.6741 40.3658C48.6741 38.8798 47.4632 37.658 45.9772 37.658C44.4912 37.658 43.2693 38.8688 43.2693 40.3658C43.2693 40.7401 43.3464 41.0923 43.4785 41.4226L39.4167 44.7689C39.2405 44.923 39.1305 45.1651 39.1305 45.4073ZM45.9772 39.3201C46.5606 39.3201 47.0229 39.7934 47.0229 40.3768C47.0229 40.9602 46.5496 41.4336 45.9772 41.4336C45.3938 41.4336 44.9205 40.9602 44.9205 40.3768C44.9315 39.7934 45.4048 39.3201 45.9772 39.3201Z" fill="#E24329" stroke="#E24329" stroke-width="0.5"/>
<path d="M40.5831 35.1703L39.4823 40.509C39.3943 40.9603 39.6805 41.3896 40.1208 41.4887C40.1758 41.4997 40.2308 41.5107 40.2859 41.5107C40.6711 41.5107 41.0124 41.2465 41.0894 40.8503L42.1352 35.7758L43.9404 34.1576C44.3477 34.3998 44.81 34.5539 45.3163 34.5539C46.8024 34.5539 48.0132 33.3431 48.0132 31.8461C48.0132 30.36 46.8024 29.1382 45.3163 29.1382C43.8303 29.1382 42.6085 30.349 42.6085 31.8461C42.6085 32.2313 42.6965 32.5946 42.8396 32.9248L40.8252 34.719C40.7042 34.8401 40.6161 34.9942 40.5831 35.1703ZM45.3163 30.7893C45.8998 30.7893 46.3621 31.2626 46.3621 31.8461C46.3621 32.4295 45.8887 32.9028 45.3163 32.9028C44.7329 32.9028 44.2596 32.4295 44.2596 31.8461C44.2706 31.2626 44.744 30.7893 45.3163 30.7893Z" fill="#E24329" stroke="#E24329" stroke-width="0.5"/>
<path d="M35.993 57.3286C36.4443 57.3286 36.8185 56.9543 36.8185 56.503V29.1381C37.9083 28.7859 38.7008 27.7732 38.7008 26.5733C38.7008 25.0873 37.49 23.8765 35.993 23.8765C34.4959 23.8765 33.2961 25.0873 33.2961 26.5733C33.2961 27.7732 34.0887 28.7859 35.1674 29.1381V56.503C35.1674 56.9543 35.5417 57.3286 35.993 57.3286ZM35.993 25.5166C36.5764 25.5166 37.0497 25.9899 37.0497 26.5623C37.0497 27.1457 36.5764 27.619 35.993 27.619C35.4096 27.619 34.9473 27.1457 34.9473 26.5623C34.9473 25.9899 35.4096 25.5166 35.993 25.5166Z" fill="#E24329" stroke="#E24329" stroke-width="0.5"/>
</svg>
