<svg width="56" height="48" viewBox="0 0 56 48" fill="none" xmlns="http://www.w3.org/2000/svg">
<path d="M0.823529 5.91177C0.823529 4.34387 1.55018 2.8402 2.84363 1.73152C4.13708 0.622854 5.89137 7.68926e-06 7.72059 7.82633e-06L49.1029 1.09273e-05C50.9322 1.10643e-05 52.6865 0.622857 53.9799 1.73153C55.2734 2.8402 56 4.34388 56 5.91178L56 41.3824C56 42.9503 55.2733 44.4539 53.9799 45.5626C52.6864 46.6713 50.9322 47.2941 49.1029 47.2941L7.72058 47.2941C5.89137 47.2941 4.13708 46.6713 2.84363 45.5626C1.55018 44.4539 0.823525 42.9503 0.823525 41.3824L0.823529 5.91177ZM16.3419 25.125L36.3192 25.125L28.9152 31.4683C28.5915 31.7459 28.4096 32.1222 28.4096 32.5147C28.4096 32.9072 28.5915 33.2836 28.9152 33.5611C29.239 33.8386 29.6781 33.9945 30.136 33.9945C30.5939 33.9945 31.033 33.8386 31.3568 33.5611L41.7024 24.6935C41.863 24.5562 41.9904 24.3931 42.0773 24.2135C42.1642 24.034 42.209 23.8415 42.209 23.6471C42.209 23.4527 42.1642 23.2602 42.0773 23.0806C41.9904 22.9011 41.863 22.738 41.7024 22.6007L31.3568 13.733C31.033 13.4555 30.5939 13.2996 30.136 13.2996C29.6781 13.2996 29.239 13.4555 28.9153 13.733C28.5915 14.0106 28.4096 14.387 28.4096 14.7794C28.4096 15.1719 28.5915 15.5483 28.9153 15.8258L36.3192 22.1691L16.3419 22.1691C15.8846 22.1691 15.446 22.3248 15.1227 22.602C14.7993 22.8792 14.6176 23.2551 14.6176 23.6471C14.6176 24.039 14.7993 24.415 15.1227 24.6921C15.446 24.9693 15.8846 25.125 16.3419 25.125Z" fill="#E24329"/>
</svg>
