<svg width="76" height="70" viewBox="0 0 76 70" fill="none" xmlns="http://www.w3.org/2000/svg">
<path d="M57.5382 15.4593C57.5245 15.4442 57.52 15.4245 57.5054 15.41C57.4895 15.394 57.468 15.389 57.4515 15.3742C52.4372 10.3858 45.5321 7.29651 37.917 7.29651C30.304 7.29651 23.4007 10.3844 18.3868 15.3704C18.3684 15.3866 18.3447 15.3924 18.3271 15.41C18.3106 15.4265 18.3054 15.4486 18.2901 15.4657C13.2957 20.4808 10.2027 27.3905 10.2027 35.0109C10.2027 42.6332 13.3017 49.545 18.3055 54.5575C18.3147 54.5673 18.3175 54.5804 18.3271 54.5899C18.3372 54.6001 18.351 54.6031 18.3614 54.6127C23.3772 59.609 30.2916 62.7034 37.917 62.7034C45.5445 62.7034 52.4607 59.6075 57.4769 54.6088C57.4855 54.6007 57.4971 54.5983 57.5054 54.5899C57.5131 54.5822 57.5153 54.5717 57.5228 54.5638C62.5302 49.5509 65.6314 42.6363 65.6314 35.0109C65.6314 27.3875 62.536 20.4749 57.5382 15.4593ZM61.4749 36.1974H63.1765C62.8924 42.2739 60.4634 47.7856 56.6164 52.0071L55.4209 50.8107C54.9548 50.3445 54.1971 50.3414 53.7278 50.8107C53.26 51.2784 53.26 52.0361 53.7278 52.5039L54.9223 53.6993C50.7003 57.538 45.1897 59.9622 39.1144 60.2481V58.5578C39.1144 57.8968 38.5781 57.3604 37.917 57.3604C37.256 57.3604 36.7197 57.8968 36.7197 58.5578V60.2481C30.644 59.9622 25.1331 57.5377 20.911 53.6985L22.1048 52.5039C22.5725 52.0361 22.5725 51.2784 22.1048 50.8107C21.6355 50.3414 20.8778 50.3445 20.4116 50.8107L19.2169 52.0062C15.3703 47.7848 12.9417 42.2735 12.6576 36.1974H14.3592C15.0203 36.1974 15.5566 35.661 15.5566 35C15.5566 34.3389 15.0203 33.8026 14.3592 33.8026H12.6586C12.9474 27.7274 15.3762 22.2173 19.2205 17.9966L20.4116 19.1877C20.6454 19.4215 20.951 19.5385 21.2582 19.5385C21.5653 19.5385 21.8709 19.4215 22.1048 19.1877C22.5725 18.72 22.5725 17.9622 22.1048 17.4945L20.9143 16.3041C25.136 12.4634 30.6455 10.0382 36.7197 9.75198V11.4421C36.7197 12.1032 37.256 12.6395 37.917 12.6395C38.5781 12.6395 39.1144 12.1032 39.1144 11.4421V9.75198C45.1881 10.0381 50.6973 12.463 54.919 16.3033L53.7278 17.4945C53.26 17.9622 53.26 18.72 53.7278 19.1877C53.9616 19.4215 54.2672 19.5385 54.5744 19.5385C54.8815 19.5385 55.1871 19.4215 55.4209 19.1877L56.6128 17.9959C60.4576 22.2167 62.8866 27.7269 63.1755 33.8026H61.4749C60.8138 33.8026 60.2775 34.3389 60.2775 35C60.2775 35.661 60.8138 36.1974 61.4749 36.1974Z" fill="#3366FF"/>
<path d="M37.917 67.6052C19.9329 67.6052 5.30089 52.984 5.30089 35.0109C5.30089 34.3498 4.76456 33.8135 4.10351 33.8135C3.44245 33.8135 2.90613 34.3498 2.90613 35.0109C2.90613 54.3046 18.6124 69.9999 37.917 69.9999C38.5781 69.9999 39.1144 69.4636 39.1144 68.8026C39.1144 68.1415 38.5781 67.6052 37.917 67.6052Z" fill="#3366FF"/>
<path d="M6.16308 31.5965C6.39694 31.8304 6.70253 31.9473 7.00967 31.9473C7.31681 31.9473 7.62239 31.8304 7.85625 31.5965C8.32398 31.1288 8.32398 30.3711 7.85625 29.9034L4.94699 26.9941C4.48082 26.5264 3.72311 26.5264 3.25382 26.9941L0.350795 29.8956C-0.116932 30.3633 -0.116932 31.121 0.350795 31.5887C0.818522 32.0549 1.57624 32.058 2.04397 31.5887L4.10041 29.5339L6.16308 31.5965Z" fill="#3366FF"/>
<path d="M37.917 2.39476C55.9011 2.39476 70.5332 17.0268 70.5332 35.0109C70.5332 35.672 71.0695 36.2083 71.7306 36.2083C72.3916 36.2083 72.928 35.672 72.928 35.0109C72.928 15.7063 57.2217 0 37.917 0C37.256 0 36.7197 0.536327 36.7197 1.19738C36.7197 1.85843 37.256 2.39476 37.917 2.39476Z" fill="#3366FF"/>
<path d="M75.4833 38.2507C75.0156 37.7845 74.2579 37.7814 73.7902 38.2507L71.7259 40.3134L69.671 38.2585C69.2033 37.7908 68.4456 37.7908 67.9779 38.2585C67.5101 38.7262 67.5101 39.4839 67.9779 39.9517L70.8793 42.8531C71.1132 43.087 71.4188 43.2039 71.7259 43.2039C72.0315 43.2039 72.3386 43.087 72.5725 42.8531L75.4833 39.9439C75.9511 39.4761 75.9511 38.7184 75.4833 38.2507Z" fill="#3366FF"/>
<path d="M46.7275 23.5032L39.4321 31.3109C38.9642 31.1183 38.4537 31.0086 37.9171 31.0086C35.7125 31.0086 33.9196 32.8016 33.9196 35.0061C33.9196 36.7845 35.1025 38.2773 36.7197 38.7882V46.5215C36.7197 47.1826 37.256 47.7189 37.9171 47.7189C38.5781 47.7189 39.1144 47.1826 39.1144 46.5215V38.7882C40.7317 38.2773 41.9146 36.7845 41.9146 35.0061C41.9146 34.21 41.6745 33.4716 41.2719 32.8478L48.4768 25.1371C48.9289 24.6538 48.9024 23.896 48.4191 23.4455C47.9358 22.9933 47.1796 23.0198 46.7275 23.5032ZM37.9171 36.5964C37.0331 36.5964 36.3143 35.8823 36.3143 35.0061C36.3143 34.1221 37.0331 33.4034 37.9171 33.4034C38.8011 33.4034 39.5198 34.1221 39.5198 35.0061C39.5198 35.8823 38.8011 36.5964 37.9171 36.5964Z" fill="#3366FF"/>
</svg>
