<svg width="140" height="21" viewBox="0 0 140 21" fill="none" xmlns="http://www.w3.org/2000/svg">
<g clip-path="url(#clip0_0_108)">
<path d="M94.515 19.5118C94.0325 19.7593 93.485 19.3255 93.5825 18.7718L94.62 12.8593L90.2162 8.66427C89.805 8.27177 90.0187 7.55427 90.57 7.47677L96.6925 6.60677L99.4225 1.19802C99.6687 0.710522 100.335 0.710522 100.581 1.19802L103.311 6.60677L109.434 7.47677C109.985 7.55427 110.199 8.27177 109.786 8.66427L105.384 12.8593L106.421 18.7718C106.519 19.3255 105.971 19.7593 105.489 19.5118L100 16.6918L94.5137 19.5118H94.515Z" fill="#FF595A"/>
</g>
<g clip-path="url(#clip1_0_108)">
<path d="M124.515 19.5118C124.032 19.7593 123.485 19.3255 123.582 18.7718L124.62 12.8593L120.216 8.66427C119.805 8.27177 120.019 7.55427 120.57 7.47677L126.692 6.60677L129.422 1.19802C129.669 0.710522 130.335 0.710522 130.581 1.19802L133.311 6.60677L139.434 7.47677C139.985 7.55427 140.199 8.27177 139.786 8.66427L135.384 12.8593L136.421 18.7718C136.519 19.3255 135.971 19.7593 135.489 19.5118L130 16.6918L124.514 19.5118H124.515Z" fill="#FF595A"/>
</g>
<g clip-path="url(#clip2_0_108)">
<path d="M64.515 19.5118C64.0325 19.7593 63.485 19.3255 63.5825 18.7718L64.62 12.8593L60.2162 8.66427C59.805 8.27177 60.0187 7.55427 60.57 7.47677L66.6925 6.60677L69.4225 1.19802C69.6687 0.710522 70.335 0.710522 70.5812 1.19802L73.3112 6.60677L79.4337 7.47677C79.985 7.55427 80.1987 8.27177 79.7862 8.66427L75.3837 12.8593L76.4212 18.7718C76.5187 19.3255 75.9712 19.7593 75.4887 19.5118L70 16.6918L64.5137 19.5118H64.515Z" fill="#FF595A"/>
</g>
<g clip-path="url(#clip3_0_108)">
<path d="M34.515 19.5118C34.0325 19.7593 33.485 19.3255 33.5825 18.7718L34.62 12.8593L30.2162 8.66427C29.805 8.27177 30.0187 7.55427 30.57 7.47677L36.6925 6.60677L39.4225 1.19802C39.6687 0.710522 40.335 0.710522 40.5812 1.19802L43.3112 6.60677L49.4337 7.47677C49.985 7.55427 50.1987 8.27177 49.7862 8.66427L45.3837 12.8593L46.4212 18.7718C46.5187 19.3255 45.9712 19.7593 45.4887 19.5118L40 16.6918L34.5137 19.5118H34.515Z" fill="#FF595A"/>
</g>
<g clip-path="url(#clip4_0_108)">
<path d="M4.515 19.5118C4.0325 19.7593 3.485 19.3255 3.5825 18.7718L4.62 12.8593L0.216245 8.66427C-0.195005 8.27177 0.0187453 7.55427 0.569995 7.47677L6.6925 6.60677L9.4225 1.19802C9.66875 0.710522 10.335 0.710522 10.5812 1.19802L13.3112 6.60677L19.4337 7.47677C19.985 7.55427 20.1987 8.27177 19.7862 8.66427L15.3837 12.8593L16.4212 18.7718C16.5187 19.3255 15.9712 19.7593 15.4887 19.5118L10 16.6918L4.51375 19.5118H4.515Z" fill="#FF595A"/>
</g>
<defs>
<clipPath id="clip0_0_108">
<rect width="20" height="20" fill="white" transform="translate(90 0.208008)"/>
</clipPath>
<clipPath id="clip1_0_108">
<rect width="20" height="20" fill="white" transform="translate(120 0.208008)"/>
</clipPath>
<clipPath id="clip2_0_108">
<rect width="20" height="20" fill="white" transform="translate(60 0.208008)"/>
</clipPath>
<clipPath id="clip3_0_108">
<rect width="20" height="20" fill="white" transform="translate(30 0.208008)"/>
</clipPath>
<clipPath id="clip4_0_108">
<rect width="20" height="20" fill="white" transform="translate(0 0.208008)"/>
</clipPath>
</defs>
</svg>
